<svg width="345" height="34" viewBox="0 0 345 34" fill="none" xmlns="http://www.w3.org/2000/svg">
<mask id="path-1-outside-1_1502_2764" maskUnits="userSpaceOnUse" x="-3" y="-2.99854" width="351" height="40" fill="black">
<rect fill="white" x="-3" y="-2.99854" width="351" height="40"/>
<path d="M0.970633 33.0015V0.801463H18.1746C22.6213 0.801463 25.9026 1.5988 28.0186 3.19346C30.1346 4.75746 31.1926 6.76613 31.1926 9.21946C31.1926 10.8448 30.7326 12.3015 29.8126 13.5895C28.9233 14.8468 27.62 15.8435 25.9026 16.5795C24.1853 17.3155 22.0693 17.6835 19.5546 17.6835L20.4746 15.1995C22.9893 15.1995 25.1513 15.5521 26.9606 16.2575C28.8006 16.9628 30.2113 17.9901 31.1926 19.3395C32.2046 20.6581 32.7106 22.2528 32.7106 24.1235C32.7106 26.9141 31.5453 29.0915 29.2146 30.6555C26.9146 32.2195 23.5413 33.0015 19.0946 33.0015H0.970633ZM11.6426 25.4115H18.1746C19.3706 25.4115 20.26 25.1968 20.8426 24.7675C21.456 24.3381 21.7626 23.7095 21.7626 22.8815C21.7626 22.0535 21.456 21.4248 20.8426 20.9955C20.26 20.5661 19.3706 20.3515 18.1746 20.3515H10.9066V13.1755H16.7026C17.9293 13.1755 18.8186 12.9761 19.3706 12.5775C19.9533 12.1481 20.2446 11.5501 20.2446 10.7835C20.2446 9.98613 19.9533 9.38813 19.3706 8.98946C18.8186 8.5908 17.9293 8.39146 16.7026 8.39146H11.6426V25.4115ZM36.5488 33.0015V0.801463H47.4048V33.0015H36.5488ZM62.5668 12.7615H76.9188V20.5815H62.5668V12.7615ZM63.3028 24.8135H79.4028V33.0015H52.6308V0.801463H78.8048V8.98946H63.3028V24.8135ZM83.582 33.0015V0.801463H92.506L108.882 20.3975H104.742V0.801463H115.322V33.0015H106.398L90.022 13.4055H94.162V33.0015H83.582ZM130.673 33.0015L117.057 0.801463H128.741L139.827 27.9875H132.881L144.289 0.801463H154.961L141.345 33.0015H130.673ZM165.977 12.7615H180.329V20.5815H165.977V12.7615ZM166.713 24.8135H182.813V33.0015H156.041V0.801463H182.215V8.98946H166.713V24.8135ZM186.992 33.0015V0.801463H195.916L212.292 20.3975H208.152V0.801463H218.732V33.0015H209.808L193.432 13.4055H197.572V33.0015H186.992ZM223.963 33.0015V0.801463H234.819V33.0015H223.963ZM240.045 33.0015V0.801463H255.915C259.503 0.801463 262.662 1.4608 265.391 2.77946C268.12 4.06746 270.252 5.90746 271.785 8.29946C273.318 10.6915 274.085 13.5435 274.085 16.8555C274.085 20.1981 273.318 23.0808 271.785 25.5035C270.252 27.8955 268.12 29.7508 265.391 31.0695C262.662 32.3575 259.503 33.0015 255.915 33.0015H240.045ZM250.901 24.5375H255.455C256.988 24.5375 258.322 24.2461 259.457 23.6635C260.622 23.0808 261.527 22.2221 262.171 21.0875C262.815 19.9221 263.137 18.5115 263.137 16.8555C263.137 15.2301 262.815 13.8501 262.171 12.7155C261.527 11.5808 260.622 10.7221 259.457 10.1395C258.322 9.5568 256.988 9.26546 255.455 9.26546H250.901V24.5375ZM294.931 33.7375C292.324 33.7375 289.901 33.3235 287.663 32.4955C285.455 31.6675 283.538 30.5021 281.913 28.9995C280.287 27.4661 279.015 25.6721 278.095 23.6175C277.205 21.5628 276.761 19.3241 276.761 16.9015C276.761 14.4481 277.205 12.2095 278.095 10.1855C279.015 8.1308 280.287 6.35213 281.913 4.84946C283.538 3.31613 285.455 2.13546 287.663 1.30746C289.901 0.479464 292.324 0.0654639 294.931 0.0654639C297.568 0.0654639 299.991 0.479464 302.199 1.30746C304.407 2.13546 306.323 3.31613 307.949 4.84946C309.574 6.35213 310.831 8.1308 311.721 10.1855C312.641 12.2095 313.101 14.4481 313.101 16.9015C313.101 19.3241 312.641 21.5628 311.721 23.6175C310.831 25.6721 309.574 27.4661 307.949 28.9995C306.323 30.5021 304.407 31.6675 302.199 32.4955C299.991 33.3235 297.568 33.7375 294.931 33.7375ZM294.931 24.9515C295.943 24.9515 296.878 24.7675 297.737 24.3995C298.626 24.0315 299.393 23.5101 300.037 22.8355C300.711 22.1301 301.233 21.2868 301.601 20.3055C301.969 19.2935 302.153 18.1588 302.153 16.9015C302.153 15.6441 301.969 14.5248 301.601 13.5435C301.233 12.5315 300.711 11.6881 300.037 11.0135C299.393 10.3081 298.626 9.77146 297.737 9.40346C296.878 9.03546 295.943 8.85146 294.931 8.85146C293.919 8.85146 292.968 9.03546 292.079 9.40346C291.22 9.77146 290.453 10.3081 289.779 11.0135C289.135 11.6881 288.629 12.5315 288.261 13.5435C287.893 14.5248 287.709 15.6441 287.709 16.9015C287.709 18.1588 287.893 19.2935 288.261 20.3055C288.629 21.2868 289.135 22.1301 289.779 22.8355C290.453 23.5101 291.22 24.0315 292.079 24.3995C292.968 24.7675 293.919 24.9515 294.931 24.9515ZM329.047 33.7375C326.348 33.7375 323.742 33.4308 321.227 32.8175C318.712 32.2041 316.642 31.4068 315.017 30.4255L318.513 22.5135C320.046 23.4028 321.748 24.1235 323.619 24.6755C325.52 25.1968 327.36 25.4575 329.139 25.4575C330.182 25.4575 330.994 25.3961 331.577 25.2735C332.19 25.1201 332.635 24.9208 332.911 24.6755C333.187 24.3995 333.325 24.0775 333.325 23.7095C333.325 23.1268 333.003 22.6668 332.359 22.3295C331.715 21.9921 330.856 21.7161 329.783 21.5015C328.74 21.2561 327.59 21.0108 326.333 20.7655C325.076 20.4895 323.803 20.1368 322.515 19.7075C321.258 19.2781 320.092 18.7108 319.019 18.0055C317.976 17.3001 317.133 16.3801 316.489 15.2455C315.845 14.0801 315.523 12.6388 315.523 10.9215C315.523 8.92813 316.075 7.1188 317.179 5.49346C318.314 3.83746 319.985 2.5188 322.193 1.53746C324.432 0.556131 327.207 0.0654639 330.519 0.0654639C332.696 0.0654639 334.843 0.295464 336.959 0.755463C339.075 1.21546 340.976 1.9208 342.663 2.87146L339.397 10.7375C337.802 9.94013 336.254 9.34213 334.751 8.94346C333.279 8.5448 331.838 8.34546 330.427 8.34546C329.384 8.34546 328.556 8.43746 327.943 8.62146C327.33 8.80546 326.885 9.0508 326.609 9.35746C326.364 9.66413 326.241 10.0015 326.241 10.3695C326.241 10.9215 326.563 11.3661 327.207 11.7035C327.851 12.0101 328.694 12.2708 329.737 12.4855C330.81 12.7001 331.976 12.9301 333.233 13.1755C334.521 13.4208 335.794 13.7581 337.051 14.1875C338.308 14.6168 339.458 15.1841 340.501 15.8895C341.574 16.5948 342.433 17.5148 343.077 18.6495C343.721 19.7841 344.043 21.1948 344.043 22.8815C344.043 24.8441 343.476 26.6535 342.341 28.3095C341.237 29.9348 339.581 31.2535 337.373 32.2655C335.165 33.2468 332.39 33.7375 329.047 33.7375Z"/>
</mask>
<path d="M0.970633 33.0015V0.801463H18.1746C22.6213 0.801463 25.9026 1.5988 28.0186 3.19346C30.1346 4.75746 31.1926 6.76613 31.1926 9.21946C31.1926 10.8448 30.7326 12.3015 29.8126 13.5895C28.9233 14.8468 27.62 15.8435 25.9026 16.5795C24.1853 17.3155 22.0693 17.6835 19.5546 17.6835L20.4746 15.1995C22.9893 15.1995 25.1513 15.5521 26.9606 16.2575C28.8006 16.9628 30.2113 17.9901 31.1926 19.3395C32.2046 20.6581 32.7106 22.2528 32.7106 24.1235C32.7106 26.9141 31.5453 29.0915 29.2146 30.6555C26.9146 32.2195 23.5413 33.0015 19.0946 33.0015H0.970633ZM11.6426 25.4115H18.1746C19.3706 25.4115 20.26 25.1968 20.8426 24.7675C21.456 24.3381 21.7626 23.7095 21.7626 22.8815C21.7626 22.0535 21.456 21.4248 20.8426 20.9955C20.26 20.5661 19.3706 20.3515 18.1746 20.3515H10.9066V13.1755H16.7026C17.9293 13.1755 18.8186 12.9761 19.3706 12.5775C19.9533 12.1481 20.2446 11.5501 20.2446 10.7835C20.2446 9.98613 19.9533 9.38813 19.3706 8.98946C18.8186 8.5908 17.9293 8.39146 16.7026 8.39146H11.6426V25.4115ZM36.5488 33.0015V0.801463H47.4048V33.0015H36.5488ZM62.5668 12.7615H76.9188V20.5815H62.5668V12.7615ZM63.3028 24.8135H79.4028V33.0015H52.6308V0.801463H78.8048V8.98946H63.3028V24.8135ZM83.582 33.0015V0.801463H92.506L108.882 20.3975H104.742V0.801463H115.322V33.0015H106.398L90.022 13.4055H94.162V33.0015H83.582ZM130.673 33.0015L117.057 0.801463H128.741L139.827 27.9875H132.881L144.289 0.801463H154.961L141.345 33.0015H130.673ZM165.977 12.7615H180.329V20.5815H165.977V12.7615ZM166.713 24.8135H182.813V33.0015H156.041V0.801463H182.215V8.98946H166.713V24.8135ZM186.992 33.0015V0.801463H195.916L212.292 20.3975H208.152V0.801463H218.732V33.0015H209.808L193.432 13.4055H197.572V33.0015H186.992ZM223.963 33.0015V0.801463H234.819V33.0015H223.963ZM240.045 33.0015V0.801463H255.915C259.503 0.801463 262.662 1.4608 265.391 2.77946C268.12 4.06746 270.252 5.90746 271.785 8.29946C273.318 10.6915 274.085 13.5435 274.085 16.8555C274.085 20.1981 273.318 23.0808 271.785 25.5035C270.252 27.8955 268.12 29.7508 265.391 31.0695C262.662 32.3575 259.503 33.0015 255.915 33.0015H240.045ZM250.901 24.5375H255.455C256.988 24.5375 258.322 24.2461 259.457 23.6635C260.622 23.0808 261.527 22.2221 262.171 21.0875C262.815 19.9221 263.137 18.5115 263.137 16.8555C263.137 15.2301 262.815 13.8501 262.171 12.7155C261.527 11.5808 260.622 10.7221 259.457 10.1395C258.322 9.5568 256.988 9.26546 255.455 9.26546H250.901V24.5375ZM294.931 33.7375C292.324 33.7375 289.901 33.3235 287.663 32.4955C285.455 31.6675 283.538 30.5021 281.913 28.9995C280.287 27.4661 279.015 25.6721 278.095 23.6175C277.205 21.5628 276.761 19.3241 276.761 16.9015C276.761 14.4481 277.205 12.2095 278.095 10.1855C279.015 8.1308 280.287 6.35213 281.913 4.84946C283.538 3.31613 285.455 2.13546 287.663 1.30746C289.901 0.479464 292.324 0.0654639 294.931 0.0654639C297.568 0.0654639 299.991 0.479464 302.199 1.30746C304.407 2.13546 306.323 3.31613 307.949 4.84946C309.574 6.35213 310.831 8.1308 311.721 10.1855C312.641 12.2095 313.101 14.4481 313.101 16.9015C313.101 19.3241 312.641 21.5628 311.721 23.6175C310.831 25.6721 309.574 27.4661 307.949 28.9995C306.323 30.5021 304.407 31.6675 302.199 32.4955C299.991 33.3235 297.568 33.7375 294.931 33.7375ZM294.931 24.9515C295.943 24.9515 296.878 24.7675 297.737 24.3995C298.626 24.0315 299.393 23.5101 300.037 22.8355C300.711 22.1301 301.233 21.2868 301.601 20.3055C301.969 19.2935 302.153 18.1588 302.153 16.9015C302.153 15.6441 301.969 14.5248 301.601 13.5435C301.233 12.5315 300.711 11.6881 300.037 11.0135C299.393 10.3081 298.626 9.77146 297.737 9.40346C296.878 9.03546 295.943 8.85146 294.931 8.85146C293.919 8.85146 292.968 9.03546 292.079 9.40346C291.22 9.77146 290.453 10.3081 289.779 11.0135C289.135 11.6881 288.629 12.5315 288.261 13.5435C287.893 14.5248 287.709 15.6441 287.709 16.9015C287.709 18.1588 287.893 19.2935 288.261 20.3055C288.629 21.2868 289.135 22.1301 289.779 22.8355C290.453 23.5101 291.22 24.0315 292.079 24.3995C292.968 24.7675 293.919 24.9515 294.931 24.9515ZM329.047 33.7375C326.348 33.7375 323.742 33.4308 321.227 32.8175C318.712 32.2041 316.642 31.4068 315.017 30.4255L318.513 22.5135C320.046 23.4028 321.748 24.1235 323.619 24.6755C325.52 25.1968 327.36 25.4575 329.139 25.4575C330.182 25.4575 330.994 25.3961 331.577 25.2735C332.19 25.1201 332.635 24.9208 332.911 24.6755C333.187 24.3995 333.325 24.0775 333.325 23.7095C333.325 23.1268 333.003 22.6668 332.359 22.3295C331.715 21.9921 330.856 21.7161 329.783 21.5015C328.74 21.2561 327.59 21.0108 326.333 20.7655C325.076 20.4895 323.803 20.1368 322.515 19.7075C321.258 19.2781 320.092 18.7108 319.019 18.0055C317.976 17.3001 317.133 16.3801 316.489 15.2455C315.845 14.0801 315.523 12.6388 315.523 10.9215C315.523 8.92813 316.075 7.1188 317.179 5.49346C318.314 3.83746 319.985 2.5188 322.193 1.53746C324.432 0.556131 327.207 0.0654639 330.519 0.0654639C332.696 0.0654639 334.843 0.295464 336.959 0.755463C339.075 1.21546 340.976 1.9208 342.663 2.87146L339.397 10.7375C337.802 9.94013 336.254 9.34213 334.751 8.94346C333.279 8.5448 331.838 8.34546 330.427 8.34546C329.384 8.34546 328.556 8.43746 327.943 8.62146C327.33 8.80546 326.885 9.0508 326.609 9.35746C326.364 9.66413 326.241 10.0015 326.241 10.3695C326.241 10.9215 326.563 11.3661 327.207 11.7035C327.851 12.0101 328.694 12.2708 329.737 12.4855C330.81 12.7001 331.976 12.9301 333.233 13.1755C334.521 13.4208 335.794 13.7581 337.051 14.1875C338.308 14.6168 339.458 15.1841 340.501 15.8895C341.574 16.5948 342.433 17.5148 343.077 18.6495C343.721 19.7841 344.043 21.1948 344.043 22.8815C344.043 24.8441 343.476 26.6535 342.341 28.3095C341.237 29.9348 339.581 31.2535 337.373 32.2655C335.165 33.2468 332.39 33.7375 329.047 33.7375Z" fill="url(#paint0_linear_1502_2764)"/>
<path d="M0.970633 33.0015H-2.02937C-2.02937 34.6583 -0.686221 36.0015 0.970633 36.0015V33.0015ZM0.970633 0.801463V-2.19854C-0.686221 -2.19854 -2.02937 -0.855392 -2.02937 0.801463H0.970633ZM28.0186 3.19346L26.2131 5.58929C26.2205 5.59489 26.228 5.60046 26.2355 5.60599L28.0186 3.19346ZM29.8126 13.5895L27.3714 11.8457L27.3634 11.8571L29.8126 13.5895ZM25.9026 16.5795L24.7209 13.822H24.7209L25.9026 16.5795ZM19.5546 17.6835L16.7414 16.6415C16.4004 17.5622 16.5315 18.5914 17.0923 19.3973C17.6532 20.2031 18.5729 20.6835 19.5546 20.6835V17.6835ZM20.4746 15.1995V12.1995C19.2196 12.1995 18.0973 12.9806 17.6614 14.1575L20.4746 15.1995ZM26.9606 16.2575L25.871 19.0526C25.8763 19.0546 25.8815 19.0567 25.8868 19.0587L26.9606 16.2575ZM31.1926 19.3395L28.7664 21.104C28.7816 21.1248 28.797 21.1455 28.8127 21.1659L31.1926 19.3395ZM29.2146 30.6555L27.543 28.1644C27.5379 28.1678 27.5328 28.1712 27.5277 28.1747L29.2146 30.6555ZM11.6426 25.4115H8.64263C8.64263 27.0683 9.98578 28.4115 11.6426 28.4115V25.4115ZM20.8426 24.7675L19.1222 22.3098C19.1023 22.3237 19.0826 22.3379 19.063 22.3523L20.8426 24.7675ZM20.8426 20.9955L19.063 23.4106C19.0826 23.425 19.1023 23.4392 19.1222 23.4532L20.8426 20.9955ZM10.9066 20.3515H7.90663C7.90663 22.0083 9.24978 23.3515 10.9066 23.3515V20.3515ZM10.9066 13.1755V10.1755C9.24978 10.1755 7.90663 11.5186 7.90663 13.1755H10.9066ZM19.3706 12.5775L21.1271 15.0095C21.1348 15.0039 21.1425 14.9983 21.1502 14.9926L19.3706 12.5775ZM19.3706 8.98946L17.6142 11.4215C17.6348 11.4364 17.6556 11.451 17.6766 11.4654L19.3706 8.98946ZM11.6426 8.39146V5.39146C9.98578 5.39146 8.64263 6.73461 8.64263 8.39146H11.6426ZM3.97063 33.0015V0.801463H-2.02937V33.0015H3.97063ZM0.970633 3.80146H18.1746V-2.19854H0.970633V3.80146ZM18.1746 3.80146C22.371 3.80146 24.8658 4.57398 26.2131 5.58929L29.8242 0.797638C26.9394 -1.37639 22.8716 -2.19854 18.1746 -2.19854V3.80146ZM26.2355 5.60599C27.6509 6.65215 28.1926 7.79547 28.1926 9.21946H34.1926C34.1926 5.7368 32.6184 2.86278 29.8018 0.780936L26.2355 5.60599ZM28.1926 9.21946C28.1926 10.2375 27.9177 11.081 27.3714 11.8457L32.2538 15.3332C33.5476 13.522 34.1926 11.4521 34.1926 9.21946H28.1926ZM27.3634 11.8571C26.8559 12.5745 26.0381 13.2575 24.7209 13.822L27.0844 19.3369C29.2019 18.4294 30.9907 17.1191 32.2619 15.3219L27.3634 11.8571ZM24.7209 13.822C23.4821 14.3529 21.7957 14.6835 19.5546 14.6835V20.6835C22.343 20.6835 24.8885 20.278 27.0844 19.3369L24.7209 13.822ZM22.3679 18.7254L23.2879 16.2414L17.6614 14.1575L16.7414 16.6415L22.3679 18.7254ZM20.4746 18.1995C22.7211 18.1995 24.4947 18.5161 25.871 19.0526L28.0503 13.4623C25.8079 12.5882 23.2575 12.1995 20.4746 12.1995V18.1995ZM25.8868 19.0587C27.285 19.5947 28.184 20.3032 28.7664 21.104L33.6188 17.5749C32.2386 15.6771 30.3162 14.3309 28.0344 13.4562L25.8868 19.0587ZM28.8127 21.1659C29.3726 21.8955 29.7106 22.8262 29.7106 24.1235H35.7106C35.7106 21.6794 35.0367 19.4208 33.5726 17.513L28.8127 21.1659ZM29.7106 24.1235C29.7106 25.9073 29.0492 27.1536 27.543 28.1644L30.8863 33.1466C34.0414 31.0293 35.7106 27.9209 35.7106 24.1235H29.7106ZM27.5277 28.1747C25.9419 29.2531 23.2697 30.0015 19.0946 30.0015V36.0015C23.8129 36.0015 27.8874 35.1859 30.9016 33.1362L27.5277 28.1747ZM19.0946 30.0015H0.970633V36.0015H19.0946V30.0015ZM11.6426 28.4115H18.1746V22.4115H11.6426V28.4115ZM18.1746 28.4115C19.6301 28.4115 21.2844 28.1684 22.6222 27.1826L19.063 22.3523C19.1661 22.2764 19.1898 22.2968 19.0347 22.3342C18.8785 22.3719 18.6036 22.4115 18.1746 22.4115V28.4115ZM22.563 27.2252C24.0727 26.1684 24.7626 24.5673 24.7626 22.8815H18.7626C18.7626 22.9228 18.7563 22.8227 18.8363 22.6587C18.9218 22.4835 19.0422 22.3658 19.1222 22.3098L22.563 27.2252ZM24.7626 22.8815C24.7626 21.1956 24.0727 19.5945 22.563 18.5378L19.1222 23.4532C19.0422 23.3971 18.9218 23.2794 18.8363 23.1042C18.7563 22.9403 18.7626 22.8402 18.7626 22.8815H24.7626ZM22.6222 18.5803C21.2844 17.5945 19.6301 17.3515 18.1746 17.3515V23.3515C18.6036 23.3515 18.8785 23.391 19.0347 23.4287C19.1898 23.4661 19.1661 23.4866 19.063 23.4106L22.6222 18.5803ZM18.1746 17.3515H10.9066V23.3515H18.1746V17.3515ZM13.9066 20.3515V13.1755H7.90663V20.3515H13.9066ZM10.9066 16.1755H16.7026V10.1755H10.9066V16.1755ZM16.7026 16.1755C18.1174 16.1755 19.7947 15.9718 21.1271 15.0095L17.6142 10.1454C17.7588 10.0409 17.8086 10.0594 17.6335 10.0986C17.4636 10.1367 17.1658 10.1755 16.7026 10.1755V16.1755ZM21.1502 14.9926C22.552 13.9597 23.2446 12.4372 23.2446 10.7835H17.2446C17.2446 10.7851 17.2445 10.7549 17.2561 10.7005C17.268 10.6448 17.2904 10.5727 17.3292 10.4931C17.4141 10.3186 17.5272 10.2093 17.591 10.1623L21.1502 14.9926ZM23.2446 10.7835C23.2446 9.14511 22.5805 7.5507 21.0647 6.51354L17.6766 11.4654C17.5658 11.3896 17.4254 11.2485 17.3292 11.0509C17.2397 10.8672 17.2446 10.7507 17.2446 10.7835H23.2446ZM21.1271 6.55743C19.7947 5.59516 18.1174 5.39146 16.7026 5.39146V11.3915C17.1658 11.3915 17.4636 11.4302 17.6335 11.4683C17.8086 11.5076 17.7588 11.526 17.6142 11.4215L21.1271 6.55743ZM16.7026 5.39146H11.6426V11.3915H16.7026V5.39146ZM8.64263 8.39146V25.4115H14.6426V8.39146H8.64263ZM36.5488 33.0015H33.5488C33.5488 34.6583 34.8919 36.0015 36.5488 36.0015V33.0015ZM36.5488 0.801463V-2.19854C34.8919 -2.19854 33.5488 -0.855392 33.5488 0.801463H36.5488ZM47.4048 0.801463H50.4048C50.4048 -0.855392 49.0616 -2.19854 47.4048 -2.19854V0.801463ZM47.4048 33.0015V36.0015C49.0616 36.0015 50.4048 34.6583 50.4048 33.0015H47.4048ZM39.5488 33.0015V0.801463H33.5488V33.0015H39.5488ZM36.5488 3.80146H47.4048V-2.19854H36.5488V3.80146ZM44.4048 0.801463V33.0015H50.4048V0.801463H44.4048ZM47.4048 30.0015H36.5488V36.0015H47.4048V30.0015ZM62.5668 12.7615V9.76146C60.9099 9.76146 59.5668 11.1046 59.5668 12.7615H62.5668ZM76.9188 12.7615H79.9188C79.9188 11.1046 78.5756 9.76146 76.9188 9.76146V12.7615ZM76.9188 20.5815V23.5815C78.5756 23.5815 79.9188 22.2383 79.9188 20.5815H76.9188ZM62.5668 20.5815H59.5668C59.5668 22.2383 60.9099 23.5815 62.5668 23.5815V20.5815ZM63.3028 24.8135H60.3028C60.3028 26.4703 61.6459 27.8135 63.3028 27.8135V24.8135ZM79.4028 24.8135H82.4028C82.4028 23.1566 81.0596 21.8135 79.4028 21.8135V24.8135ZM79.4028 33.0015V36.0015C81.0596 36.0015 82.4028 34.6583 82.4028 33.0015H79.4028ZM52.6308 33.0015H49.6308C49.6308 34.6583 50.9739 36.0015 52.6308 36.0015V33.0015ZM52.6308 0.801463V-2.19854C50.9739 -2.19854 49.6308 -0.855392 49.6308 0.801463H52.6308ZM78.8048 0.801463H81.8048C81.8048 -0.855392 80.4616 -2.19854 78.8048 -2.19854V0.801463ZM78.8048 8.98946V11.9895C80.4616 11.9895 81.8048 10.6463 81.8048 8.98946H78.8048ZM63.3028 8.98946V5.98946C61.6459 5.98946 60.3028 7.33261 60.3028 8.98946H63.3028ZM62.5668 15.7615H76.9188V9.76146H62.5668V15.7615ZM73.9188 12.7615V20.5815H79.9188V12.7615H73.9188ZM76.9188 17.5815H62.5668V23.5815H76.9188V17.5815ZM65.5668 20.5815V12.7615H59.5668V20.5815H65.5668ZM63.3028 27.8135H79.4028V21.8135H63.3028V27.8135ZM76.4028 24.8135V33.0015H82.4028V24.8135H76.4028ZM79.4028 30.0015H52.6308V36.0015H79.4028V30.0015ZM55.6308 33.0015V0.801463H49.6308V33.0015H55.6308ZM52.6308 3.80146H78.8048V-2.19854H52.6308V3.80146ZM75.8048 0.801463V8.98946H81.8048V0.801463H75.8048ZM78.8048 5.98946H63.3028V11.9895H78.8048V5.98946ZM60.3028 8.98946V24.8135H66.3028V8.98946H60.3028ZM83.582 33.0015H80.582C80.582 34.6583 81.9251 36.0015 83.582 36.0015V33.0015ZM83.582 0.801463V-2.19854C81.9251 -2.19854 80.582 -0.855392 80.582 0.801463H83.582ZM92.506 0.801463L94.808 -1.12228C94.238 -1.80435 93.3949 -2.19854 92.506 -2.19854V0.801463ZM108.882 20.3975V23.3975C110.047 23.3975 111.106 22.7232 111.6 21.6681C112.093 20.6129 111.931 19.3675 111.184 18.4737L108.882 20.3975ZM104.742 20.3975H101.742C101.742 22.0543 103.085 23.3975 104.742 23.3975V20.3975ZM104.742 0.801463V-2.19854C103.085 -2.19854 101.742 -0.855392 101.742 0.801463H104.742ZM115.322 0.801463H118.322C118.322 -0.855392 116.979 -2.19854 115.322 -2.19854V0.801463ZM115.322 33.0015V36.0015C116.979 36.0015 118.322 34.6583 118.322 33.0015H115.322ZM106.398 33.0015L104.096 34.9252C104.666 35.6073 105.509 36.0015 106.398 36.0015V33.0015ZM90.022 13.4055V10.4055C88.8572 10.4055 87.7976 11.0797 87.3043 12.1349C86.811 13.1901 86.973 14.4354 87.72 15.3292L90.022 13.4055ZM94.162 13.4055H97.162C97.162 11.7486 95.8188 10.4055 94.162 10.4055V13.4055ZM94.162 33.0015V36.0015C95.8188 36.0015 97.162 34.6583 97.162 33.0015H94.162ZM86.582 33.0015V0.801463H80.582V33.0015H86.582ZM83.582 3.80146H92.506V-2.19854H83.582V3.80146ZM90.204 2.7252L106.58 22.3212L111.184 18.4737L94.808 -1.12228L90.204 2.7252ZM108.882 17.3975H104.742V23.3975H108.882V17.3975ZM107.742 20.3975V0.801463H101.742V20.3975H107.742ZM104.742 3.80146H115.322V-2.19854H104.742V3.80146ZM112.322 0.801463V33.0015H118.322V0.801463H112.322ZM115.322 30.0015H106.398V36.0015H115.322V30.0015ZM108.7 31.0777L92.324 11.4817L87.72 15.3292L104.096 34.9252L108.7 31.0777ZM90.022 16.4055H94.162V10.4055H90.022V16.4055ZM91.162 13.4055V33.0015H97.162V13.4055H91.162ZM94.162 30.0015H83.582V36.0015H94.162V30.0015ZM130.673 33.0015L127.91 34.1699C128.379 35.2801 129.467 36.0015 130.673 36.0015V33.0015ZM117.057 0.801463V-2.19854C116.051 -2.19854 115.112 -1.69445 114.556 -0.856063C114 -0.0176744 113.902 1.04343 114.294 1.96987L117.057 0.801463ZM128.741 0.801463L131.519 -0.331324C131.058 -1.46045 129.96 -2.19854 128.741 -2.19854V0.801463ZM139.827 27.9875V30.9875C140.826 30.9875 141.759 30.4902 142.316 29.661C142.874 28.8319 142.982 27.7797 142.605 26.8547L139.827 27.9875ZM132.881 27.9875L130.114 26.8266C129.726 27.7528 129.826 28.812 130.382 29.6484C130.939 30.4848 131.876 30.9875 132.881 30.9875V27.9875ZM144.289 0.801463V-2.19854C143.08 -2.19854 141.99 -1.47359 141.522 -0.359359L144.289 0.801463ZM154.961 0.801463L157.724 1.96987C158.116 1.04343 158.017 -0.0176744 157.461 -0.856063C156.905 -1.69445 155.967 -2.19854 154.961 -2.19854V0.801463ZM141.345 33.0015V36.0015C142.55 36.0015 143.638 35.2801 144.108 34.1699L141.345 33.0015ZM133.436 31.8331L119.82 -0.366942L114.294 1.96987L127.91 34.1699L133.436 31.8331ZM117.057 3.80146H128.741V-2.19854H117.057V3.80146ZM125.963 1.93425L137.049 29.1203L142.605 26.8547L131.519 -0.331324L125.963 1.93425ZM139.827 24.9875H132.881V30.9875H139.827V24.9875ZM135.647 29.1483L147.055 1.96228L141.522 -0.359359L130.114 26.8266L135.647 29.1483ZM144.289 3.80146H154.961V-2.19854H144.289V3.80146ZM152.198 -0.366942L138.582 31.8331L144.108 34.1699L157.724 1.96987L152.198 -0.366942ZM141.345 30.0015H130.673V36.0015H141.345V30.0015ZM165.977 12.7615V9.76146C164.32 9.76146 162.977 11.1046 162.977 12.7615H165.977ZM180.329 12.7615H183.329C183.329 11.1046 181.986 9.76146 180.329 9.76146V12.7615ZM180.329 20.5815V23.5815C181.986 23.5815 183.329 22.2383 183.329 20.5815H180.329ZM165.977 20.5815H162.977C162.977 22.2383 164.32 23.5815 165.977 23.5815V20.5815ZM166.713 24.8135H163.713C163.713 26.4703 165.056 27.8135 166.713 27.8135V24.8135ZM182.813 24.8135H185.813C185.813 23.1566 184.47 21.8135 182.813 21.8135V24.8135ZM182.813 33.0015V36.0015C184.47 36.0015 185.813 34.6583 185.813 33.0015H182.813ZM156.041 33.0015H153.041C153.041 34.6583 154.384 36.0015 156.041 36.0015V33.0015ZM156.041 0.801463V-2.19854C154.384 -2.19854 153.041 -0.855392 153.041 0.801463H156.041ZM182.215 0.801463H185.215C185.215 -0.855392 183.872 -2.19854 182.215 -2.19854V0.801463ZM182.215 8.98946V11.9895C183.872 11.9895 185.215 10.6463 185.215 8.98946H182.215ZM166.713 8.98946V5.98946C165.056 5.98946 163.713 7.33261 163.713 8.98946H166.713ZM165.977 15.7615H180.329V9.76146H165.977V15.7615ZM177.329 12.7615V20.5815H183.329V12.7615H177.329ZM180.329 17.5815H165.977V23.5815H180.329V17.5815ZM168.977 20.5815V12.7615H162.977V20.5815H168.977ZM166.713 27.8135H182.813V21.8135H166.713V27.8135ZM179.813 24.8135V33.0015H185.813V24.8135H179.813ZM182.813 30.0015H156.041V36.0015H182.813V30.0015ZM159.041 33.0015V0.801463H153.041V33.0015H159.041ZM156.041 3.80146H182.215V-2.19854H156.041V3.80146ZM179.215 0.801463V8.98946H185.215V0.801463H179.215ZM182.215 5.98946H166.713V11.9895H182.215V5.98946ZM163.713 8.98946V24.8135H169.713V8.98946H163.713ZM186.992 33.0015H183.992C183.992 34.6583 185.335 36.0015 186.992 36.0015V33.0015ZM186.992 0.801463V-2.19854C185.335 -2.19854 183.992 -0.855392 183.992 0.801463H186.992ZM195.916 0.801463L198.218 -1.12228C197.648 -1.80435 196.805 -2.19854 195.916 -2.19854V0.801463ZM212.292 20.3975V23.3975C213.457 23.3975 214.516 22.7232 215.01 21.6681C215.503 20.6129 215.341 19.3675 214.594 18.4737L212.292 20.3975ZM208.152 20.3975H205.152C205.152 22.0543 206.495 23.3975 208.152 23.3975V20.3975ZM208.152 0.801463V-2.19854C206.495 -2.19854 205.152 -0.855392 205.152 0.801463H208.152ZM218.732 0.801463H221.732C221.732 -0.855392 220.389 -2.19854 218.732 -2.19854V0.801463ZM218.732 33.0015V36.0015C220.389 36.0015 221.732 34.6583 221.732 33.0015H218.732ZM209.808 33.0015L207.506 34.9252C208.076 35.6073 208.919 36.0015 209.808 36.0015V33.0015ZM193.432 13.4055V10.4055C192.267 10.4055 191.208 11.0797 190.714 12.1349C190.221 13.1901 190.383 14.4354 191.13 15.3292L193.432 13.4055ZM197.572 13.4055H200.572C200.572 11.7486 199.229 10.4055 197.572 10.4055V13.4055ZM197.572 33.0015V36.0015C199.229 36.0015 200.572 34.6583 200.572 33.0015H197.572ZM189.992 33.0015V0.801463H183.992V33.0015H189.992ZM186.992 3.80146H195.916V-2.19854H186.992V3.80146ZM193.614 2.7252L209.99 22.3212L214.594 18.4737L198.218 -1.12228L193.614 2.7252ZM212.292 17.3975H208.152V23.3975H212.292V17.3975ZM211.152 20.3975V0.801463H205.152V20.3975H211.152ZM208.152 3.80146H218.732V-2.19854H208.152V3.80146ZM215.732 0.801463V33.0015H221.732V0.801463H215.732ZM218.732 30.0015H209.808V36.0015H218.732V30.0015ZM212.11 31.0777L195.734 11.4817L191.13 15.3292L207.506 34.9252L212.11 31.0777ZM193.432 16.4055H197.572V10.4055H193.432V16.4055ZM194.572 13.4055V33.0015H200.572V13.4055H194.572ZM197.572 30.0015H186.992V36.0015H197.572V30.0015ZM223.963 33.0015H220.963C220.963 34.6583 222.306 36.0015 223.963 36.0015V33.0015ZM223.963 0.801463V-2.19854C222.306 -2.19854 220.963 -0.855392 220.963 0.801463H223.963ZM234.819 0.801463H237.819C237.819 -0.855392 236.476 -2.19854 234.819 -2.19854V0.801463ZM234.819 33.0015V36.0015C236.476 36.0015 237.819 34.6583 237.819 33.0015H234.819ZM226.963 33.0015V0.801463H220.963V33.0015H226.963ZM223.963 3.80146H234.819V-2.19854H223.963V3.80146ZM231.819 0.801463V33.0015H237.819V0.801463H231.819ZM234.819 30.0015H223.963V36.0015H234.819V30.0015ZM240.045 33.0015H237.045C237.045 34.6583 238.388 36.0015 240.045 36.0015V33.0015ZM240.045 0.801463V-2.19854C238.388 -2.19854 237.045 -0.855392 237.045 0.801463H240.045ZM265.391 2.77946L264.086 5.48071C264.094 5.48469 264.102 5.48863 264.111 5.49254L265.391 2.77946ZM271.785 8.29947L269.259 9.91846L271.785 8.29947ZM271.785 25.5035L274.31 27.1225C274.314 27.1176 274.317 27.1127 274.32 27.1079L271.785 25.5035ZM265.391 31.0695L266.671 33.7825C266.679 33.7786 266.688 33.7747 266.696 33.7707L265.391 31.0695ZM250.901 24.5375H247.901C247.901 26.1943 249.244 27.5375 250.901 27.5375V24.5375ZM259.457 23.6635L258.115 20.9802C258.106 20.985 258.096 20.9899 258.086 20.9948L259.457 23.6635ZM262.171 21.0875L264.78 22.5683C264.786 22.5584 264.791 22.5485 264.797 22.5385L262.171 21.0875ZM262.171 12.7155L264.78 11.2346V11.2346L262.171 12.7155ZM259.457 10.1395L258.086 12.8082C258.096 12.8131 258.106 12.8179 258.115 12.8227L259.457 10.1395ZM250.901 9.26546V6.26546C249.244 6.26546 247.901 7.60861 247.901 9.26546H250.901ZM243.045 33.0015V0.801463H237.045V33.0015H243.045ZM240.045 3.80146H255.915V-2.19854H240.045V3.80146ZM255.915 3.80146C259.133 3.80146 261.832 4.39159 264.086 5.48071L266.696 0.0782204C263.492 -1.47 259.872 -2.19854 255.915 -2.19854V3.80146ZM264.111 5.49254C266.363 6.55567 268.049 8.03079 269.259 9.91846L274.31 6.68047C272.454 3.78413 269.877 1.57926 266.671 0.0663919L264.111 5.49254ZM269.259 9.91846C270.434 11.7517 271.085 14.0204 271.085 16.8555H277.085C277.085 13.0665 276.202 9.63127 274.31 6.68047L269.259 9.91846ZM271.085 16.8555C271.085 19.7261 270.432 22.0315 269.25 23.8991L274.32 27.1079C276.204 24.1301 277.085 20.6702 277.085 16.8555H271.085ZM269.259 23.8845C268.045 25.7785 266.351 27.2739 264.086 28.3682L266.696 33.7707C269.89 32.2277 272.458 30.0125 274.31 27.1225L269.259 23.8845ZM264.111 28.3564C261.85 29.4231 259.143 30.0015 255.915 30.0015V36.0015C259.863 36.0015 263.473 35.2918 266.671 33.7825L264.111 28.3564ZM255.915 30.0015H240.045V36.0015H255.915V30.0015ZM250.901 27.5375H255.455V21.5375H250.901V27.5375ZM255.455 27.5375C257.369 27.5375 259.191 27.1723 260.827 26.3322L258.086 20.9948C257.453 21.3199 256.607 21.5375 255.455 21.5375V27.5375ZM260.798 26.3467C262.497 25.4975 263.843 24.2199 264.78 22.5683L259.562 19.6066C259.211 20.2244 258.747 20.6641 258.115 20.9802L260.798 26.3467ZM264.797 22.5385C265.739 20.8332 266.137 18.897 266.137 16.8555H260.137C260.137 18.1259 259.891 19.0111 259.545 19.6364L264.797 22.5385ZM266.137 16.8555C266.137 14.837 265.736 12.919 264.78 11.2346L259.562 14.1963C259.894 14.7813 260.137 15.6232 260.137 16.8555H266.137ZM264.78 11.2346C263.843 9.58306 262.497 8.30545 260.798 7.45618L258.115 12.8227C258.747 13.1388 259.211 13.5785 259.562 14.1963L264.78 11.2346ZM260.827 7.47076C259.191 6.63058 257.369 6.26546 255.455 6.26546V12.2655C256.607 12.2655 257.453 12.483 258.086 12.8082L260.827 7.47076ZM255.455 6.26546H250.901V12.2655H255.455V6.26546ZM247.901 9.26546V24.5375H253.901V9.26546H247.901ZM287.663 32.4955L286.609 35.3045L286.622 35.3092L287.663 32.4955ZM281.913 28.9995L279.854 31.1816C279.861 31.1886 279.869 31.1954 279.876 31.2023L281.913 28.9995ZM278.095 23.6175L275.342 24.8091C275.347 24.8206 275.352 24.832 275.357 24.8435L278.095 23.6175ZM278.095 10.1855L275.357 8.95947C275.354 8.96585 275.351 8.97224 275.348 8.97864L278.095 10.1855ZM281.913 4.84946L283.949 7.05228C283.957 7.04544 283.964 7.03856 283.971 7.03164L281.913 4.84946ZM287.663 1.30746L286.622 -1.50628L286.609 -1.50152L287.663 1.30746ZM302.199 1.30746L301.145 4.11645V4.11645L302.199 1.30746ZM307.949 4.84946L305.89 7.03164C305.897 7.03856 305.905 7.04544 305.912 7.05228L307.949 4.84946ZM311.721 10.1855L308.968 11.3771C308.975 11.3938 308.982 11.4104 308.99 11.4269L311.721 10.1855ZM311.721 23.6175L308.983 22.3915C308.978 22.4029 308.973 22.4143 308.968 22.4258L311.721 23.6175ZM307.949 28.9995L309.985 31.2023C309.993 31.1954 310 31.1886 310.007 31.1816L307.949 28.9995ZM302.199 32.4955L301.145 29.6865L302.199 32.4955ZM297.737 24.3995L296.59 21.6274C296.578 21.6322 296.567 21.6371 296.555 21.642L297.737 24.3995ZM300.037 22.8355L297.869 20.7618L297.867 20.764L300.037 22.8355ZM301.601 20.3055L304.41 21.3588C304.413 21.3495 304.417 21.3401 304.42 21.3307L301.601 20.3055ZM301.601 13.5435L298.781 14.5687C298.785 14.5781 298.788 14.5875 298.792 14.5968L301.601 13.5435ZM300.037 11.0135L297.821 13.0363C297.852 13.0698 297.883 13.1027 297.915 13.1348L300.037 11.0135ZM297.737 9.40346L296.555 12.1609C296.567 12.1658 296.578 12.1707 296.59 12.1755L297.737 9.40346ZM292.079 9.40346L290.932 6.63141C290.92 6.63621 290.909 6.64108 290.897 6.64603L292.079 9.40346ZM289.779 11.0135L287.611 8.9398L287.609 8.94204L289.779 11.0135ZM288.261 13.5435L291.07 14.5968C291.073 14.5875 291.077 14.5781 291.08 14.5687L288.261 13.5435ZM288.261 20.3055L285.441 21.3307C285.445 21.3401 285.448 21.3495 285.452 21.3588L288.261 20.3055ZM289.779 22.8355L287.563 24.8583C287.594 24.8918 287.625 24.9247 287.657 24.9568L289.779 22.8355ZM292.079 24.3995L290.897 27.1569C290.909 27.1618 290.92 27.1667 290.932 27.1715L292.079 24.3995ZM294.931 30.7375C292.647 30.7375 290.58 30.3757 288.703 29.6818L286.622 35.3092C289.223 36.2713 292.002 36.7375 294.931 36.7375V30.7375ZM288.716 29.6865C286.848 28.9859 285.271 28.0186 283.949 26.7966L279.876 31.2023C281.805 32.9857 284.062 34.349 286.609 35.3045L288.716 29.6865ZM283.971 26.8173C282.635 25.557 281.593 24.0886 280.833 22.3915L275.357 24.8435C276.437 27.2557 277.939 29.3753 279.854 31.1816L283.971 26.8173ZM280.848 22.4258C280.134 20.7773 279.761 18.9482 279.761 16.9015H273.761C273.761 19.7 274.276 22.3483 275.342 24.8091L280.848 22.4258ZM279.761 16.9015C279.761 14.8178 280.137 12.9961 280.841 11.3923L275.348 8.97864C274.274 11.4228 273.761 14.0784 273.761 16.9015H279.761ZM280.833 11.4115C281.59 9.71994 282.627 8.27526 283.949 7.05228L279.876 2.64665C277.948 4.429 276.439 6.54165 275.357 8.95947L280.833 11.4115ZM283.971 7.03164C285.291 5.78697 286.861 4.81229 288.716 4.11645L286.609 -1.50152C284.049 -0.541365 281.785 0.845284 279.854 2.66728L283.971 7.03164ZM288.703 4.12117C290.58 3.42725 292.647 3.06546 294.931 3.06546V-2.93454C292.002 -2.93454 289.223 -2.46832 286.622 -1.50625L288.703 4.12117ZM294.931 3.06546C297.251 3.06546 299.312 3.42882 301.145 4.11645L303.252 -1.50152C300.67 -2.4699 297.885 -2.93454 294.931 -2.93454V3.06546ZM301.145 4.11645C303.001 4.81229 304.571 5.78697 305.89 7.03164L310.007 2.66728C308.076 0.845284 305.813 -0.541365 303.252 -1.50152L301.145 4.11645ZM305.912 7.05228C307.227 8.26812 308.242 9.7012 308.968 11.3771L314.474 8.9938C313.421 6.5604 311.921 4.43614 309.985 2.64665L305.912 7.05228ZM308.99 11.4269C309.715 13.0223 310.101 14.8317 310.101 16.9015H316.101C316.101 14.0646 315.567 11.3966 314.452 8.94405L308.99 11.4269ZM310.101 16.9015C310.101 18.9342 309.717 20.7512 308.983 22.3915L314.459 24.8435C315.564 22.3744 316.101 19.714 316.101 16.9015H310.101ZM308.968 22.4258C308.24 24.1073 307.218 25.5641 305.89 26.8173L310.007 31.1816C311.93 29.3682 313.423 27.2369 314.474 24.8091L308.968 22.4258ZM305.912 26.7966C304.591 28.0186 303.014 28.9859 301.145 29.6865L303.252 35.3045C305.8 34.349 308.056 32.9857 309.985 31.2023L305.912 26.7966ZM301.145 29.6865C299.312 30.3741 297.251 30.7375 294.931 30.7375V36.7375C297.885 36.7375 300.67 36.2728 303.252 35.3045L301.145 29.6865ZM294.931 27.9515C296.315 27.9515 297.656 27.6979 298.919 27.1569L296.555 21.642C296.1 21.8371 295.571 21.9515 294.931 21.9515V27.9515ZM298.884 27.1715C300.147 26.649 301.265 25.8935 302.207 24.9069L297.867 20.764C297.52 21.1267 297.106 21.4139 296.59 21.6274L298.884 27.1715ZM302.205 24.9091C303.18 23.8894 303.91 22.6917 304.41 21.3588L298.792 19.2521C298.556 19.8819 298.243 20.3708 297.869 20.7618L302.205 24.9091ZM304.42 21.3307C304.926 19.9401 305.153 18.451 305.153 16.9015H299.153C299.153 17.8666 299.012 18.6468 298.781 19.2802L304.42 21.3307ZM305.153 16.9015C305.153 15.3543 304.926 13.8681 304.41 12.4901L298.792 14.5968C299.011 15.1815 299.153 15.9339 299.153 16.9015H305.153ZM304.42 12.5182C303.922 11.1474 303.18 9.91444 302.158 8.89214L297.915 13.1348C298.242 13.4618 298.544 13.9155 298.781 14.5687L304.42 12.5182ZM302.252 8.99066C301.309 7.95762 300.177 7.1664 298.884 6.63141L296.59 12.1755C297.075 12.3765 297.477 12.6586 297.821 13.0363L302.252 8.99066ZM298.919 6.64603C297.656 6.10505 296.315 5.85146 294.931 5.85146V11.8515C295.571 11.8515 296.1 11.9659 296.555 12.1609L298.919 6.64603ZM294.931 5.85146C293.546 5.85146 292.203 6.10524 290.932 6.63141L293.226 12.1755C293.733 11.9657 294.292 11.8515 294.931 11.8515V5.85146ZM290.897 6.64603C289.65 7.18032 288.552 7.95579 287.611 8.9398L291.947 13.0871C292.355 12.6605 292.79 12.3626 293.261 12.1609L290.897 6.64603ZM287.609 8.94204C286.637 9.95965 285.929 11.1762 285.441 12.5182L291.08 14.5687C291.328 13.8867 291.632 13.4166 291.949 13.0849L287.609 8.94204ZM285.452 12.4901C284.935 13.8681 284.709 15.3543 284.709 16.9015H290.709C290.709 15.9339 290.85 15.1815 291.07 14.5968L285.452 12.4901ZM284.709 16.9015C284.709 18.451 284.936 19.9401 285.441 21.3307L291.08 19.2802C290.85 18.6468 290.709 17.8666 290.709 16.9015H284.709ZM285.452 21.3588C285.941 22.6632 286.637 23.8443 287.563 24.8583L291.994 20.8127C291.632 20.416 291.317 19.9104 291.07 19.2521L285.452 21.3588ZM287.657 24.9568C288.596 25.8954 289.68 26.6353 290.897 27.1569L293.261 21.642C292.76 21.4276 292.311 21.1248 291.9 20.7141L287.657 24.9568ZM290.932 27.1715C292.203 27.6977 293.546 27.9515 294.931 27.9515V21.9515C294.292 21.9515 293.733 21.8372 293.226 21.6274L290.932 27.1715ZM321.227 32.8175L321.938 29.9029L321.227 32.8175ZM315.017 30.4255L312.273 29.213C311.663 30.594 312.174 32.2133 313.466 32.9937L315.017 30.4255ZM318.513 22.5135L320.018 19.9184C319.28 19.4905 318.396 19.3968 317.585 19.6607C316.774 19.9245 316.114 20.521 315.769 21.301L318.513 22.5135ZM323.619 24.6755L322.77 27.5528C322.788 27.5583 322.807 27.5636 322.826 27.5687L323.619 24.6755ZM331.577 25.2735L332.195 28.2091C332.232 28.2014 332.268 28.193 332.305 28.1839L331.577 25.2735ZM332.911 24.6755L334.904 26.9177C334.948 26.8787 334.991 26.8383 335.032 26.7968L332.911 24.6755ZM332.359 22.3295L330.967 24.987L332.359 22.3295ZM329.783 21.5015L329.096 24.4217C329.129 24.4294 329.162 24.4366 329.195 24.4432L329.783 21.5015ZM326.333 20.7655L325.69 23.6957C325.713 23.7007 325.735 23.7055 325.758 23.7099L326.333 20.7655ZM322.515 19.7075L321.546 22.5465C321.552 22.5489 321.559 22.5512 321.566 22.5535L322.515 19.7075ZM319.019 18.0055L317.338 20.4903C317.349 20.4978 317.36 20.5052 317.371 20.5126L319.019 18.0055ZM316.489 15.2455L313.863 16.6965C313.869 16.7065 313.874 16.7164 313.88 16.7263L316.489 15.2455ZM317.179 5.49346L314.704 3.79775L314.697 3.80781L317.179 5.49346ZM322.193 1.53746L320.989 -1.21014C320.984 -1.2081 320.979 -1.20604 320.975 -1.20397L322.193 1.53746ZM336.959 0.755463L336.322 3.68699L336.959 0.755463ZM342.663 2.87146L345.434 4.02186C346.016 2.61964 345.459 1.0035 344.136 0.258007L342.663 2.87146ZM339.397 10.7375L338.055 13.4207C338.8 13.7929 339.665 13.8392 340.445 13.5485C341.225 13.2579 341.849 12.6564 342.168 11.8879L339.397 10.7375ZM334.751 8.94346L333.967 11.8391C333.972 11.8405 333.977 11.8418 333.982 11.8431L334.751 8.94346ZM327.943 8.62146L327.081 5.74798L327.943 8.62146ZM326.609 9.35746L324.379 7.35058C324.34 7.39374 324.303 7.43803 324.266 7.48338L326.609 9.35746ZM327.207 11.7035L325.815 14.361C325.849 14.3786 325.883 14.3957 325.917 14.412L327.207 11.7035ZM329.737 12.4855L329.132 15.4238C329.138 15.425 329.143 15.4261 329.149 15.4272L329.737 12.4855ZM333.233 13.1755L332.658 16.12L332.672 16.1225L333.233 13.1755ZM337.051 14.1875L336.082 17.0265L337.051 14.1875ZM340.501 15.8895L338.82 18.3743C338.831 18.3818 338.842 18.3892 338.853 18.3966L340.501 15.8895ZM343.077 18.6495L340.468 20.1303V20.1303L343.077 18.6495ZM342.341 28.3095L339.866 26.6138L339.859 26.6238L342.341 28.3095ZM337.373 32.2655L338.591 35.0069C338.602 35.0022 338.612 34.9975 338.623 34.9927L337.373 32.2655ZM329.047 30.7375C326.578 30.7375 324.21 30.4571 321.938 29.9029L320.516 35.732C323.273 36.4045 326.119 36.7375 329.047 36.7375V30.7375ZM321.938 29.9029C319.619 29.3374 317.857 28.6357 316.568 27.8573L313.466 32.9937C315.428 34.1778 317.805 35.0708 320.516 35.732L321.938 29.9029ZM317.761 31.638L321.257 23.726L315.769 21.301L312.273 29.213L317.761 31.638ZM317.008 25.1086C318.767 26.1291 320.693 26.9399 322.77 27.5528L324.468 21.7981C322.804 21.3071 321.325 20.6765 320.018 19.9184L317.008 25.1086ZM322.826 27.5687C324.958 28.1533 327.065 28.4575 329.139 28.4575V22.4575C327.656 22.4575 326.083 22.2403 324.412 21.7823L322.826 27.5687ZM329.139 28.4575C330.259 28.4575 331.313 28.3949 332.195 28.2091L330.959 22.3378C330.676 22.3974 330.104 22.4575 329.139 22.4575V28.4575ZM332.305 28.1839C333.097 27.9859 334.094 27.6376 334.904 26.9177L330.918 22.4332C330.996 22.3637 331.06 22.3205 331.097 22.2977C331.134 22.2749 331.152 22.2675 331.143 22.2714C331.135 22.2752 331.107 22.2868 331.057 22.3038C331.006 22.3206 330.938 22.3409 330.849 22.363L332.305 28.1839ZM335.032 26.7968C335.833 25.9961 336.325 24.9251 336.325 23.7095H330.325C330.325 23.5081 330.365 23.2764 330.464 23.0452C330.562 22.8175 330.689 22.6553 330.79 22.5541L335.032 26.7968ZM336.325 23.7095C336.325 21.7169 335.093 20.3748 333.751 19.672L330.967 24.987C330.985 24.9965 330.809 24.9096 330.626 24.6479C330.42 24.3538 330.325 24.009 330.325 23.7095H336.325ZM333.751 19.672C332.761 19.1533 331.598 18.8051 330.371 18.5597L329.195 24.4432C330.114 24.6271 330.669 24.831 330.967 24.987L333.751 19.672ZM330.47 18.5812C329.384 18.3256 328.195 18.0723 326.907 17.821L325.758 23.7099C326.985 23.9493 328.097 24.1867 329.096 24.4217L330.47 18.5812ZM326.976 17.8352C325.828 17.5831 324.657 17.2591 323.464 16.8614L321.566 22.5535C322.949 23.0145 324.324 23.3958 325.69 23.6957L326.976 17.8352ZM323.484 16.8684C322.458 16.5179 321.521 16.0602 320.666 15.4983L317.371 20.5126C318.663 21.3614 320.057 22.0384 321.546 22.5465L323.484 16.8684ZM320.7 15.5206C320.054 15.0836 319.523 14.5127 319.098 13.7646L313.88 16.7263C314.743 18.2475 315.899 19.5167 317.338 20.4903L320.7 15.5206ZM319.115 13.7944C318.777 13.1838 318.523 12.2746 318.523 10.9215H312.523C312.523 13.003 312.913 14.9764 313.863 16.6965L319.115 13.7944ZM318.523 10.9215C318.523 9.51995 318.9 8.29954 319.661 7.17911L314.697 3.80781C313.25 5.93805 312.523 8.33631 312.523 10.9215H318.523ZM319.654 7.18916C320.416 6.07688 321.607 5.08088 323.411 4.2789L320.975 -1.20397C318.363 -0.0432806 316.211 1.59805 314.704 3.79777L319.654 7.18916ZM323.397 4.28507C325.147 3.51809 327.483 3.06546 330.519 3.06546V-2.93454C326.931 -2.93454 323.716 -2.40583 320.989 -1.21014L323.397 4.28507ZM330.519 3.06546C332.483 3.06546 334.416 3.27276 336.322 3.68699L337.596 -2.17607C335.27 -2.68183 332.909 -2.93454 330.519 -2.93454V3.06546ZM336.322 3.68699C338.179 4.09076 339.793 4.6977 341.19 5.48492L344.136 0.258007C342.159 -0.856109 339.971 -1.65983 337.596 -2.17607L336.322 3.68699ZM339.892 1.72107L336.626 9.58707L342.168 11.8879L345.434 4.02186L339.892 1.72107ZM340.739 8.05418C338.987 7.17843 337.247 6.50187 335.52 6.04378L333.982 11.8431C335.26 12.1824 336.617 12.7018 338.055 13.4207L340.739 8.05418ZM335.535 6.04779C333.828 5.58545 332.123 5.34546 330.427 5.34546V11.3455C331.552 11.3455 332.73 11.5041 333.967 11.8391L335.535 6.04779ZM330.427 5.34546C329.251 5.34546 328.093 5.44422 327.081 5.74798L328.805 11.4949C329.019 11.4307 329.518 11.3455 330.427 11.3455V5.34546ZM327.081 5.74798C326.208 6.00997 325.173 6.46846 324.379 7.35058L328.839 11.3644C328.708 11.5096 328.604 11.5672 328.599 11.5702C328.594 11.5727 328.607 11.5652 328.643 11.5508C328.678 11.5364 328.731 11.5171 328.805 11.4949L327.081 5.74798ZM324.266 7.48338C323.626 8.28363 323.241 9.27271 323.241 10.3695H329.241C329.241 10.5262 329.214 10.6974 329.152 10.8657C329.092 11.0316 329.014 11.1537 328.952 11.2316L324.266 7.48338ZM323.241 10.3695C323.241 12.3968 324.547 13.697 325.815 14.361L328.599 9.04597C328.56 9.02561 328.728 9.10287 328.912 9.35743C329.124 9.64991 329.241 10.0172 329.241 10.3695H323.241ZM325.917 14.412C326.858 14.86 327.956 15.1818 329.132 15.4238L330.342 9.54709C329.432 9.35977 328.844 9.16025 328.497 8.99488L325.917 14.412ZM329.149 15.4272C330.227 15.6429 331.397 15.8738 332.658 16.1199L333.807 10.231C332.554 9.98641 331.393 9.75733 330.325 9.54372L329.149 15.4272ZM332.672 16.1225C333.819 16.3411 334.956 16.6421 336.082 17.0265L338.02 11.3484C336.632 10.8742 335.223 10.5005 333.794 10.2284L332.672 16.1225ZM336.082 17.0265C337.101 17.3746 338.01 17.8261 338.82 18.3743L342.182 13.4046C340.907 12.5421 339.516 11.859 338.02 11.3484L336.082 17.0265ZM338.853 18.3966C339.523 18.8366 340.055 19.4023 340.468 20.1303L345.686 17.1686C344.811 15.6273 343.626 14.353 342.148 13.3823L338.853 18.3966ZM340.468 20.1303C340.791 20.7 341.043 21.5656 341.043 22.8815H347.043C347.043 20.824 346.651 18.8683 345.686 17.1686L340.468 20.1303ZM341.043 22.8815C341.043 24.2243 340.667 25.4449 339.866 26.6138L344.816 30.0052C346.284 27.862 347.043 25.4639 347.043 22.8815H341.043ZM339.859 26.6238C339.128 27.7001 337.95 28.7008 336.123 29.5383L338.623 34.9927C341.212 33.8061 343.346 32.1694 344.823 29.9951L339.859 26.6238ZM336.155 29.524C334.447 30.2828 332.121 30.7375 329.047 30.7375V36.7375C332.659 36.7375 335.883 36.2108 338.591 35.0069L336.155 29.524Z" fill="#FFA800" mask="url(#path-1-outside-1_1502_2764)"/>
<defs>
<linearGradient id="paint0_linear_1502_2764" x1="171.5" y1="-5.99854" x2="171.5" y2="42.0015" gradientUnits="userSpaceOnUse">
<stop stop-color="#FFF384"/>
<stop offset="1" stop-color="#FFCC33"/>
</linearGradient>
</defs>
</svg>
