<svg width="372" height="94" viewBox="0 0 372 94" fill="none" xmlns="http://www.w3.org/2000/svg">
<g filter="url(#filter0_ddiii_1510_3066)">
<rect x="11" y="6.00195" width="350" height="72" rx="13.75" fill="url(#paint0_linear_1510_3066)"/>
<rect x="11" y="6.00195" width="350" height="72" rx="13.75" stroke="#F69400" stroke-width="2.75"/>
<path d="M51.848 39.914H62.984V43.338H51.848V39.914ZM52.168 49.514H64.808V53.002H48.008V30.602H64.36V34.09H52.168V49.514ZM78.7575 35.722C80.1228 35.722 81.3388 35.9886 82.4055 36.522C83.4935 37.0553 84.3468 37.8766 84.9655 38.986C85.5842 40.074 85.8935 41.482 85.8935 43.21V53.002H81.8935V43.722C81.8935 42.2073 81.5308 41.0766 80.8055 40.33C80.1015 39.5833 79.1095 39.21 77.8295 39.21C76.8908 39.21 76.0588 39.402 75.3335 39.786C74.6082 40.17 74.0428 40.746 73.6375 41.514C73.2535 42.2606 73.0615 43.21 73.0615 44.362V53.002H69.0615V35.914H72.8695V40.522L72.1975 39.114C72.7948 38.026 73.6588 37.194 74.7895 36.618C75.9415 36.0206 77.2642 35.722 78.7575 35.722ZM97.3998 53.226C95.5224 53.226 94.0718 52.746 93.0477 51.786C92.0238 50.8046 91.5118 49.3646 91.5118 47.466V32.138H95.5118V47.37C95.5118 48.1806 95.7144 48.81 96.1198 49.258C96.5464 49.706 97.1331 49.93 97.8798 49.93C98.7758 49.93 99.5224 49.6953 100.12 49.226L101.24 52.074C100.77 52.458 100.194 52.746 99.5118 52.938C98.8291 53.13 98.1251 53.226 97.3998 53.226ZM88.6958 39.242V36.042H100.088V39.242H88.6958ZM104.53 53.002V35.914H108.338V40.618L107.89 39.242C108.402 38.09 109.202 37.2153 110.29 36.618C111.4 36.0206 112.776 35.722 114.418 35.722V39.53C114.248 39.4873 114.088 39.466 113.938 39.466C113.789 39.4446 113.64 39.434 113.49 39.434C111.976 39.434 110.77 39.882 109.874 40.778C108.978 41.6526 108.53 42.9646 108.53 44.714V53.002H104.53ZM127.121 53.002V49.546L126.897 48.81V42.762C126.897 41.5886 126.545 40.682 125.841 40.042C125.137 39.3806 124.07 39.05 122.641 39.05C121.681 39.05 120.731 39.1993 119.793 39.498C118.875 39.7966 118.097 40.2126 117.457 40.746L115.889 37.834C116.806 37.13 117.894 36.6073 119.153 36.266C120.433 35.9033 121.755 35.722 123.121 35.722C125.595 35.722 127.505 36.3193 128.849 37.514C130.214 38.6873 130.897 40.5113 130.897 42.986V53.002H127.121ZM121.745 53.226C120.465 53.226 119.345 53.0126 118.385 52.586C117.425 52.138 116.678 51.53 116.145 50.762C115.633 49.9726 115.377 49.0873 115.377 48.106C115.377 47.146 115.601 46.282 116.049 45.514C116.518 44.746 117.275 44.138 118.321 43.69C119.366 43.242 120.753 43.018 122.481 43.018H127.441V45.674H122.769C121.403 45.674 120.486 45.898 120.017 46.346C119.547 46.7726 119.313 47.306 119.313 47.946C119.313 48.6713 119.601 49.2473 120.177 49.674C120.753 50.1006 121.553 50.314 122.577 50.314C123.558 50.314 124.433 50.09 125.201 49.642C125.99 49.194 126.555 48.5326 126.897 47.658L127.569 50.058C127.185 51.0606 126.491 51.8393 125.489 52.394C124.507 52.9486 123.259 53.226 121.745 53.226ZM150.154 53.226C148.725 53.226 147.349 53.0446 146.026 52.682C144.725 52.298 143.69 51.8393 142.922 51.306L144.458 48.266C145.226 48.7566 146.143 49.162 147.21 49.482C148.277 49.802 149.343 49.962 150.41 49.962C151.669 49.962 152.575 49.7913 153.13 49.45C153.706 49.1086 153.994 48.65 153.994 48.074C153.994 47.6046 153.802 47.2526 153.418 47.018C153.034 46.762 152.533 46.57 151.914 46.442C151.295 46.314 150.602 46.1966 149.834 46.09C149.087 45.9833 148.33 45.8446 147.562 45.674C146.815 45.482 146.133 45.2153 145.514 44.874C144.895 44.5113 144.394 44.0313 144.01 43.434C143.626 42.8366 143.434 42.0473 143.434 41.066C143.434 39.978 143.743 39.0393 144.362 38.25C144.981 37.4393 145.845 36.8206 146.954 36.394C148.085 35.946 149.418 35.722 150.954 35.722C152.106 35.722 153.269 35.85 154.442 36.106C155.615 36.362 156.586 36.7246 157.354 37.194L155.818 40.234C155.007 39.7433 154.186 39.4126 153.354 39.242C152.543 39.05 151.733 38.954 150.922 38.954C149.706 38.954 148.799 39.1353 148.202 39.498C147.626 39.8606 147.338 40.3193 147.338 40.874C147.338 41.386 147.53 41.77 147.914 42.026C148.298 42.282 148.799 42.4846 149.418 42.634C150.037 42.7833 150.719 42.9113 151.466 43.018C152.234 43.1033 152.991 43.242 153.738 43.434C154.485 43.626 155.167 43.8926 155.786 44.234C156.426 44.554 156.938 45.0126 157.322 45.61C157.706 46.2073 157.898 46.986 157.898 47.946C157.898 49.0126 157.578 49.9406 156.938 50.73C156.319 51.5193 155.434 52.138 154.282 52.586C153.13 53.0126 151.754 53.226 150.154 53.226ZM161.343 53.002V35.914H165.343V53.002H161.343ZM163.359 33.098C162.612 33.098 161.993 32.8633 161.503 32.394C161.033 31.9246 160.799 31.3593 160.799 30.698C160.799 30.0153 161.033 29.45 161.503 29.002C161.993 28.5326 162.612 28.298 163.359 28.298C164.105 28.298 164.713 28.522 165.183 28.97C165.673 29.3966 165.919 29.9406 165.919 30.602C165.919 31.306 165.684 31.9033 165.215 32.394C164.745 32.8633 164.127 33.098 163.359 33.098ZM180.289 35.722C181.654 35.722 182.87 35.9886 183.937 36.522C185.025 37.0553 185.878 37.8766 186.497 38.986C187.115 40.074 187.425 41.482 187.425 43.21V53.002H183.425V43.722C183.425 42.2073 183.062 41.0766 182.337 40.33C181.633 39.5833 180.641 39.21 179.361 39.21C178.422 39.21 177.59 39.402 176.865 39.786C176.139 40.17 175.574 40.746 175.169 41.514C174.785 42.2606 174.593 43.21 174.593 44.362V53.002H170.593V35.914H174.401V40.522L173.729 39.114C174.326 38.026 175.19 37.194 176.321 36.618C177.473 36.0206 178.795 35.722 180.289 35.722ZM201.343 53.002V35.914H205.151V40.618L204.703 39.242C205.215 38.09 206.015 37.2153 207.103 36.618C208.212 36.0206 209.588 35.722 211.231 35.722V39.53C211.06 39.4873 210.9 39.466 210.751 39.466C210.601 39.4446 210.452 39.434 210.303 39.434C208.788 39.434 207.583 39.882 206.687 40.778C205.791 41.6526 205.343 42.9646 205.343 44.714V53.002H201.343ZM222.5 53.226C220.601 53.226 218.937 52.8526 217.508 52.106C216.1 51.338 215.001 50.2926 214.212 48.97C213.444 47.6473 213.06 46.1433 213.06 44.458C213.06 42.7513 213.433 41.2473 214.18 39.946C214.948 38.6233 215.993 37.5886 217.316 36.842C218.66 36.0953 220.185 35.722 221.892 35.722C223.556 35.722 225.038 36.0846 226.34 36.81C227.641 37.5353 228.665 38.5593 229.412 39.882C230.158 41.2046 230.532 42.762 230.532 44.554C230.532 44.7246 230.521 44.9166 230.5 45.13C230.5 45.3433 230.489 45.546 230.468 45.738H216.228V43.082H228.356L226.788 43.914C226.809 42.9326 226.606 42.0686 226.18 41.322C225.753 40.5753 225.166 39.9886 224.42 39.562C223.694 39.1353 222.852 38.922 221.892 38.922C220.91 38.922 220.046 39.1353 219.3 39.562C218.574 39.9886 217.998 40.586 217.572 41.354C217.166 42.1006 216.964 42.986 216.964 44.01V44.65C216.964 45.674 217.198 46.5806 217.668 47.37C218.137 48.1593 218.798 48.7673 219.652 49.194C220.505 49.6206 221.486 49.834 222.596 49.834C223.556 49.834 224.42 49.6846 225.188 49.386C225.956 49.0873 226.638 48.618 227.236 47.978L229.38 50.442C228.612 51.338 227.641 52.0313 226.468 52.522C225.316 52.9913 223.993 53.226 222.5 53.226ZM242.118 59.434C240.539 59.434 238.993 59.2206 237.478 58.794C235.985 58.3886 234.758 57.7913 233.798 57.002L235.59 53.994C236.337 54.6126 237.275 55.1033 238.406 55.466C239.558 55.85 240.721 56.042 241.894 56.042C243.771 56.042 245.147 55.6046 246.022 54.73C246.897 53.8766 247.334 52.586 247.334 50.858V47.818L247.654 43.946L247.526 40.074V35.914H251.334V50.41C251.334 53.5033 250.545 55.7753 248.966 57.226C247.387 58.698 245.105 59.434 242.118 59.434ZM241.606 52.234C239.985 52.234 238.513 51.8926 237.19 51.21C235.889 50.506 234.854 49.5353 234.086 48.298C233.339 47.0606 232.966 45.61 232.966 43.946C232.966 42.3033 233.339 40.8633 234.086 39.626C234.854 38.3886 235.889 37.4286 237.19 36.746C238.513 36.0633 239.985 35.722 241.606 35.722C243.057 35.722 244.358 36.01 245.51 36.586C246.662 37.162 247.579 38.058 248.262 39.274C248.966 40.49 249.318 42.0473 249.318 43.946C249.318 45.8446 248.966 47.4126 248.262 48.65C247.579 49.866 246.662 50.7726 245.51 51.37C244.358 51.946 243.057 52.234 241.606 52.234ZM242.214 48.842C243.217 48.842 244.113 48.6393 244.902 48.234C245.691 47.8073 246.299 47.2313 246.726 46.506C247.174 45.7593 247.398 44.906 247.398 43.946C247.398 42.986 247.174 42.1433 246.726 41.418C246.299 40.6713 245.691 40.106 244.902 39.722C244.113 39.3166 243.217 39.114 242.214 39.114C241.211 39.114 240.305 39.3166 239.494 39.722C238.705 40.106 238.086 40.6713 237.638 41.418C237.211 42.1433 236.998 42.986 236.998 43.946C236.998 44.906 237.211 45.7593 237.638 46.506C238.086 47.2313 238.705 47.8073 239.494 48.234C240.305 48.6393 241.211 48.842 242.214 48.842ZM256.593 53.002V35.914H260.593V53.002H256.593ZM258.609 33.098C257.862 33.098 257.243 32.8633 256.753 32.394C256.283 31.9246 256.049 31.3593 256.049 30.698C256.049 30.0153 256.283 29.45 256.753 29.002C257.243 28.5326 257.862 28.298 258.609 28.298C259.355 28.298 259.963 28.522 260.433 28.97C260.923 29.3966 261.169 29.9406 261.169 30.602C261.169 31.306 260.934 31.9033 260.465 32.394C259.995 32.8633 259.377 33.098 258.609 33.098ZM271.123 53.226C269.693 53.226 268.317 53.0446 266.995 52.682C265.693 52.298 264.659 51.8393 263.891 51.306L265.427 48.266C266.195 48.7566 267.112 49.162 268.179 49.482C269.245 49.802 270.312 49.962 271.379 49.962C272.637 49.962 273.544 49.7913 274.099 49.45C274.675 49.1086 274.963 48.65 274.963 48.074C274.963 47.6046 274.771 47.2526 274.387 47.018C274.003 46.762 273.501 46.57 272.883 46.442C272.264 46.314 271.571 46.1966 270.803 46.09C270.056 45.9833 269.299 45.8446 268.531 45.674C267.784 45.482 267.101 45.2153 266.483 44.874C265.864 44.5113 265.363 44.0313 264.979 43.434C264.595 42.8366 264.403 42.0473 264.403 41.066C264.403 39.978 264.712 39.0393 265.331 38.25C265.949 37.4393 266.813 36.8206 267.923 36.394C269.053 35.946 270.387 35.722 271.923 35.722C273.075 35.722 274.237 35.85 275.411 36.106C276.584 36.362 277.555 36.7246 278.323 37.194L276.787 40.234C275.976 39.7433 275.155 39.4126 274.323 39.242C273.512 39.05 272.701 38.954 271.891 38.954C270.675 38.954 269.768 39.1353 269.171 39.498C268.595 39.8606 268.307 40.3193 268.307 40.874C268.307 41.386 268.499 41.77 268.883 42.026C269.267 42.282 269.768 42.4846 270.387 42.634C271.005 42.7833 271.688 42.9113 272.435 43.018C273.203 43.1033 273.96 43.242 274.707 43.434C275.453 43.626 276.136 43.8926 276.755 44.234C277.395 44.554 277.907 45.0126 278.291 45.61C278.675 46.2073 278.867 46.986 278.867 47.946C278.867 49.0126 278.547 49.9406 277.907 50.73C277.288 51.5193 276.403 52.138 275.251 52.586C274.099 53.0126 272.723 53.226 271.123 53.226ZM288.744 53.226C286.866 53.226 285.416 52.746 284.391 51.786C283.368 50.8046 282.856 49.3646 282.856 47.466V32.138H286.856V47.37C286.856 48.1806 287.058 48.81 287.464 49.258C287.89 49.706 288.477 49.93 289.224 49.93C290.12 49.93 290.866 49.6953 291.464 49.226L292.584 52.074C292.114 52.458 291.538 52.746 290.856 52.938C290.173 53.13 289.469 53.226 288.744 53.226ZM280.04 39.242V36.042H291.432V39.242H280.04ZM295.874 53.002V35.914H299.682V40.618L299.234 39.242C299.746 38.09 300.546 37.2153 301.634 36.618C302.743 36.0206 304.119 35.722 305.762 35.722V39.53C305.591 39.4873 305.431 39.466 305.282 39.466C305.133 39.4446 304.983 39.434 304.834 39.434C303.319 39.434 302.114 39.882 301.218 40.778C300.322 41.6526 299.874 42.9646 299.874 44.714V53.002H295.874ZM316.679 53.226C314.93 53.226 313.372 52.8526 312.007 52.106C310.642 51.338 309.564 50.2926 308.775 48.97C307.986 47.6473 307.591 46.1433 307.591 44.458C307.591 42.7513 307.986 41.2473 308.775 39.946C309.564 38.6233 310.642 37.5886 312.007 36.842C313.372 36.0953 314.93 35.722 316.679 35.722C318.45 35.722 320.018 36.0953 321.383 36.842C322.77 37.5886 323.847 38.6126 324.615 39.914C325.404 41.2153 325.799 42.73 325.799 44.458C325.799 46.1433 325.404 47.6473 324.615 48.97C323.847 50.2926 322.77 51.338 321.383 52.106C320.018 52.8526 318.45 53.226 316.679 53.226ZM316.679 49.802C317.66 49.802 318.535 49.5886 319.303 49.162C320.071 48.7353 320.668 48.1166 321.095 47.306C321.543 46.4953 321.767 45.546 321.767 44.458C321.767 43.3486 321.543 42.3993 321.095 41.61C320.668 40.7993 320.071 40.1806 319.303 39.754C318.535 39.3273 317.671 39.114 316.711 39.114C315.73 39.114 314.855 39.3273 314.087 39.754C313.34 40.1806 312.743 40.7993 312.295 41.61C311.847 42.3993 311.623 43.3486 311.623 44.458C311.623 45.546 311.847 46.4953 312.295 47.306C312.743 48.1166 313.34 48.7353 314.087 49.162C314.855 49.5886 315.719 49.802 316.679 49.802Z" fill="white"/>
</g>
<defs>
<filter id="filter0_ddiii_1510_3066" x="0.458333" y="-1.78971" width="371.083" height="94.9167" filterUnits="userSpaceOnUse" color-interpolation-filters="sRGB">
<feFlood flood-opacity="0" result="BackgroundImageFix"/>
<feColorMatrix in="SourceAlpha" type="matrix" values="0 0 0 0 0 0 0 0 0 0 0 0 0 0 0 0 0 0 127 0" result="hardAlpha"/>
<feOffset dy="4.58333"/>
<feGaussianBlur stdDeviation="4.58333"/>
<feComposite in2="hardAlpha" operator="out"/>
<feColorMatrix type="matrix" values="0 0 0 0 0 0 0 0 0 0 0 0 0 0 0 0 0 0 0.25 0"/>
<feBlend mode="normal" in2="BackgroundImageFix" result="effect1_dropShadow_1510_3066"/>
<feColorMatrix in="SourceAlpha" type="matrix" values="0 0 0 0 0 0 0 0 0 0 0 0 0 0 0 0 0 0 127 0" result="hardAlpha"/>
<feOffset dy="1.83333"/>
<feGaussianBlur stdDeviation="1.83333"/>
<feComposite in2="hardAlpha" operator="out"/>
<feColorMatrix type="matrix" values="0 0 0 0 0 0 0 0 0 0 0 0 0 0 0 0 0 0 0.1 0"/>
<feBlend mode="normal" in2="effect1_dropShadow_1510_3066" result="effect2_dropShadow_1510_3066"/>
<feBlend mode="normal" in="SourceGraphic" in2="effect2_dropShadow_1510_3066" result="shape"/>
<feColorMatrix in="SourceAlpha" type="matrix" values="0 0 0 0 0 0 0 0 0 0 0 0 0 0 0 0 0 0 127 0" result="hardAlpha"/>
<feOffset dy="3.66667"/>
<feGaussianBlur stdDeviation="7.33333"/>
<feComposite in2="hardAlpha" operator="arithmetic" k2="-1" k3="1"/>
<feColorMatrix type="matrix" values="0 0 0 0 1 0 0 0 0 0.95168 0 0 0 0 0.516797 0 0 0 0.7 0"/>
<feBlend mode="normal" in2="shape" result="effect3_innerShadow_1510_3066"/>
<feColorMatrix in="SourceAlpha" type="matrix" values="0 0 0 0 0 0 0 0 0 0 0 0 0 0 0 0 0 0 127 0" result="hardAlpha"/>
<feOffset dy="3.66667"/>
<feGaussianBlur stdDeviation="3.66667"/>
<feComposite in2="hardAlpha" operator="arithmetic" k2="-1" k3="1"/>
<feColorMatrix type="matrix" values="0 0 0 0 1 0 0 0 0 0.95168 0 0 0 0 0.516797 0 0 0 1 0"/>
<feBlend mode="normal" in2="effect3_innerShadow_1510_3066" result="effect4_innerShadow_1510_3066"/>
<feColorMatrix in="SourceAlpha" type="matrix" values="0 0 0 0 0 0 0 0 0 0 0 0 0 0 0 0 0 0 127 0" result="hardAlpha"/>
<feOffset dy="-6.41667"/>
<feGaussianBlur stdDeviation="6.41667"/>
<feComposite in2="hardAlpha" operator="arithmetic" k2="-1" k3="1"/>
<feColorMatrix type="matrix" values="0 0 0 0 0.65098 0 0 0 0 0.0980392 0 0 0 0 0.145098 0 0 0 0.4 0"/>
<feBlend mode="normal" in2="effect4_innerShadow_1510_3066" result="effect5_innerShadow_1510_3066"/>
</filter>
<linearGradient id="paint0_linear_1510_3066" x1="223.917" y1="6.18324" x2="223.917" y2="78.1832" gradientUnits="userSpaceOnUse">
<stop stop-color="#FFBD3E"/>
<stop offset="1" stop-color="#FFA800"/>
</linearGradient>
</defs>
</svg>
