<svg width="294" height="213" viewBox="0 0 294 213" fill="none" xmlns="http://www.w3.org/2000/svg">
<path d="M58.0519 126.502L71.0264 125.015L63.648 78.1186C54.7524 78.3807 51.7005 84.4045 51.7005 84.4045L23.577 130.361C31.653 130.611 34.3417 125.656 34.3417 125.656L40.8968 113.971L56.5373 112.265L58.0519 126.502ZM43.4359 109.449L54.1528 90.3355L56.0659 107.919L43.4359 109.449ZM114.587 82.1136C114.587 71.8716 102.605 73.3249 102.605 73.3249L81.9797 75.5029L72.6517 124.437C85.1837 123.579 86.2207 115 86.2207 115L88.6517 99.6045L98.0689 122.122L112.273 120.446L100.881 98.2942C102.892 97.8302 114.582 92.3556 114.582 82.1186M89.2437 97.35L92.7758 79.1042C92.7758 79.1042 102.555 76.8772 102.379 84.2089C102.338 87.6748 100.941 90.9876 98.4881 93.442C96.0347 95.8964 92.7179 97.2986 89.2437 97.35ZM42.1072 80.0346C42.1072 80.0346 41.1846 86.7443 35.0192 87.2797L27.1003 88.17L20.6394 122.062C18.7376 132.303 6.20686 132.482 6.20686 132.482L14.8925 89.5456L0.501465 91.1669C0.501465 91.1669 1.79363 84.3092 8.62905 83.5957L42.1072 80.0346ZM216.962 60.5073C216.962 60.5073 216.053 67.0866 210.009 67.6083L202.252 68.486L195.723 102.659C193.865 111.82 181.79 112.285 181.79 112.285L190.279 69.8315L176.168 71.4189C176.168 71.4189 177.439 64.6992 184.133 64.0033L216.962 60.5073ZM110.03 140.29C110.03 130.047 98.0513 131.502 98.0513 131.502L77.4282 133.667L68.1002 182.608C80.6297 181.75 81.6692 173.168 81.6692 173.168L84.1014 157.774L93.2484 179.686L107.452 178.04L96.3255 156.463C98.3366 155.998 110.026 150.525 110.026 140.288M84.691 155.522L88.2168 137.273C88.2168 137.273 97.9973 135.054 97.8301 142.384C97.7856 145.85 96.388 149.161 93.9344 151.614C91.4807 154.068 88.1645 155.469 84.691 155.522ZM155 77.9355C155 67.691 143.021 69.1481 143.021 69.1481L122.399 71.3211L113.072 120.259C125.599 119.396 126.64 110.816 126.64 110.816L129.073 95.4227L138.266 117.426L152.452 115.754L141.297 94.1148C143.3 93.6471 154.998 88.1788 154.998 77.9393M129.667 93.1656L133.186 74.9161C133.186 74.9161 142.963 72.6954 142.796 80.0258C142.752 83.4899 141.356 86.8006 138.905 89.2542C136.453 91.7078 133.139 93.1111 129.667 93.1656ZM167.802 104.476C165.917 115.123 153.734 115.645 153.734 115.645C153.734 115.645 159.241 89.1079 161.702 76.9738C164.163 64.8396 175.346 65.2785 175.346 65.2785L167.802 104.476ZM263.287 79.2221C261.871 87.2628 257.495 94.4855 251.016 99.4728C244.5 104.373 236.725 107.329 228.593 107.999C221.017 108.81 215.377 107.126 211.673 102.946C208.035 98.8216 206.926 93.0917 208.344 85.7562C209.701 78.1924 213.586 71.3101 219.367 66.2315C225.184 61.0683 232.508 57.9037 240.263 57.2032C248.849 56.2837 255.176 57.6388 259.243 61.2685C263.517 65.0795 264.862 71.0678 263.278 79.2333M251.183 80.2753C252.221 74.9044 252.071 70.5065 250.732 67.0816C249.077 62.7815 245.7 60.9044 240.602 61.4503C237.796 61.7385 235.086 62.6345 232.663 64.0756C230.239 65.5167 228.161 67.4682 226.572 69.7938C223.468 74.2374 221.395 79.3144 220.503 84.6565C219.432 90.198 219.567 94.6641 220.907 98.0547C222.587 102.355 226.061 104.222 231.329 103.656C236.669 103.086 241.218 100.202 244.978 95.0039C248.109 90.6111 250.228 85.582 251.183 80.2766M164.731 148.004C163.317 156.047 158.94 163.271 152.459 168.259C145.943 173.154 138.171 176.11 130.043 176.786C122.466 177.592 116.83 175.905 113.135 171.724C109.49 167.597 108.377 161.866 109.796 154.53C111.157 146.969 115.042 140.089 120.819 135.009C126.638 129.848 133.963 126.683 141.717 125.981C150.307 125.066 156.633 126.423 160.698 130.052C164.971 133.854 166.317 139.84 164.734 148.01M152.638 149.055C153.677 143.684 153.529 139.286 152.195 135.862C150.531 131.558 147.152 129.677 142.058 130.219C139.252 130.509 136.543 131.406 134.121 132.848C131.698 134.289 129.62 136.241 128.031 138.566C124.926 143.007 122.852 148.083 121.959 153.424C120.893 158.966 121.03 163.433 122.37 166.825C124.046 171.123 127.519 172.99 132.79 172.425C138.137 171.858 142.686 168.974 146.438 163.773C149.565 159.378 151.681 154.349 152.638 149.045M240.66 139.852C239.242 147.892 234.865 155.115 228.387 160.105C221.87 165.007 214.093 167.964 205.959 168.631C198.388 169.444 192.755 167.758 189.057 163.574C185.416 159.447 184.303 153.717 185.719 146.383C187.076 138.819 190.963 131.936 196.745 126.858C202.562 121.694 209.888 118.529 217.643 117.83C226.233 116.906 232.561 118.257 236.629 121.88C240.896 125.691 242.242 131.678 240.666 139.841M228.569 140.89C229.606 135.517 229.458 131.118 228.125 127.692C226.459 123.396 223.078 121.518 217.984 122.058C215.179 122.349 212.471 123.247 210.049 124.688C207.627 126.13 205.549 128.082 203.961 130.407C200.856 134.851 198.78 139.928 197.885 145.271C196.818 150.81 196.953 155.276 198.292 158.668C199.978 162.965 203.456 164.833 208.725 164.269C214.067 163.7 218.615 160.816 222.372 155.617C225.502 151.225 227.62 146.198 228.573 140.894M252.776 107.09C253.653 106.969 254.545 107.146 255.31 107.592C256.062 108.047 256.647 108.731 256.977 109.544C257.351 110.461 257.477 111.46 257.342 112.441C257.217 113.514 256.862 114.547 256.3 115.47C255.76 116.406 255.028 117.218 254.152 117.853C253.358 118.446 252.422 118.821 251.437 118.942C250.564 119.072 249.672 118.902 248.908 118.461C248.144 118.02 247.553 117.333 247.23 116.514C246.853 115.608 246.723 114.619 246.853 113.647C246.975 112.565 247.331 111.521 247.897 110.59C248.442 109.65 249.179 108.835 250.061 108.198C250.854 107.599 251.791 107.219 252.777 107.095M252.674 108.29C251.876 108.39 251.117 108.695 250.472 109.176C249.766 109.681 249.173 110.327 248.732 111.074C248.28 111.809 247.995 112.634 247.897 113.492C247.791 114.274 247.894 115.071 248.197 115.801C248.462 116.46 248.943 117.01 249.562 117.362C250.18 117.714 250.899 117.848 251.603 117.741C252.392 117.64 253.142 117.338 253.78 116.863C254.484 116.355 255.075 115.707 255.515 114.959C255.969 114.219 256.255 113.388 256.354 112.526C256.461 111.751 256.356 110.961 256.05 110.24C255.78 109.59 255.304 109.045 254.695 108.689C254.084 108.337 253.374 108.197 252.674 108.29ZM249.495 116.421L250.224 109.999L253.56 109.623C253.776 109.575 254 109.586 254.21 109.656C254.419 109.727 254.605 109.853 254.747 110.022C255.004 110.392 255.107 110.848 255.033 111.292C254.975 111.766 254.784 112.214 254.48 112.583C254.341 112.763 254.167 112.914 253.968 113.026C253.768 113.138 253.549 113.208 253.321 113.232L254.29 115.878L253.005 116.032L251.999 113.383L250.958 113.502L250.639 116.288L249.495 116.421ZM251.073 112.544L253.033 112.319C253.277 112.295 253.502 112.18 253.662 111.996C253.829 111.829 253.935 111.61 253.962 111.376C253.977 111.276 253.971 111.173 253.943 111.075C253.916 110.977 253.868 110.885 253.803 110.807C253.729 110.729 253.636 110.671 253.534 110.639C253.431 110.606 253.323 110.6 253.217 110.62L251.267 110.846L251.073 112.544ZM187.192 121.941L178.421 165.512C178.421 165.512 176.214 179.986 155.484 181.953L155.789 180.397C159.796 178.249 165.062 173.582 167.41 163.469C169.451 154.68 171.998 141.275 173.544 133.633C176.005 121.497 187.192 121.938 187.192 121.938M292.156 96.9061C285.632 133.794 254.935 169.414 209.38 191.687C137.168 226.989 51.3586 217.393 18.5893 170.66C12.9703 162.745 9.06495 153.75 7.12194 144.247C7.05532 143.942 7.01132 143.64 6.95476 143.342C11.3612 143.001 15.6103 141.557 19.3095 139.144C19.4088 139.724 19.3523 139.374 19.4654 139.947C21.1877 148.942 24.776 157.478 30.0001 165.008C60.356 208.294 138.951 217.468 205.232 184.837C238.876 168.264 264.481 143.646 277.092 117.225C289.442 91.3311 288.367 65.7073 273.993 45.0666C263.657 30.2139 245.655 18.4835 224.142 11.587C184.345 -1.17918 134.027 5.73869 92.6576 25.9556C80.4317 31.7668 68.7896 38.7288 57.8898 46.7468L52.1203 47.5832C64.2677 37.2471 78.6663 27.0189 89.8207 21.5694C162.031 -13.7372 246.691 -4.9936 280.503 42.6239C291.703 58.392 295.629 77.2196 292.148 96.9048M45.6846 56.802C45.8338 56.0204 46.078 54.44 46.4174 52.0609C47.1149 52.0738 47.8125 52.0445 48.5065 51.9732C48.8836 51.9318 49.5825 51.8152 50.5956 51.617C50.0241 53.8465 49.4748 56.2958 48.9477 58.965C49.0407 58.8772 49.2908 58.6653 49.7019 58.3305C50.9839 57.2361 52.1966 56.0636 53.3333 54.8196C53.4171 54.736 54.5328 53.4879 56.6806 51.0754C57.0723 51.0924 57.4648 51.0865 57.8559 51.0578C58.2769 51.0139 58.8376 50.9324 59.5327 50.7945L59.5867 51.1017L51.9493 58.2252L57.0753 67.2095C56.3744 67.1981 55.6735 67.2274 54.9761 67.2973C54.0145 67.4014 53.0329 67.5481 52.0386 67.7462C51.5282 66.5586 50.9494 65.4014 50.3052 64.2804C49.4429 62.7397 48.8509 61.5974 48.5291 60.8534L48.0791 63.197C47.8277 64.4777 47.5721 66.1286 47.3124 68.15C46.4174 68.1951 45.6163 68.2557 44.909 68.3318C44.2994 68.397 43.7237 68.4735 43.1769 68.5663C44.0149 65.0352 44.8508 61.1159 45.6846 56.8083M75.8406 57.0302C75.361 59.7547 73.878 62.2019 71.6825 63.8916C69.4755 65.5495 66.8427 66.5495 64.0892 66.7757C61.5208 67.049 59.611 66.4776 58.3599 65.0616C57.7236 64.2486 57.2894 63.2968 57.0928 62.2843C56.8962 61.2717 56.9427 60.227 57.2286 59.2359C57.6881 56.6747 59.0041 54.3444 60.9618 52.6252C62.9331 50.8766 65.4151 49.8054 68.0424 49.5694C70.951 49.2601 73.0941 49.7199 74.4718 50.9487C75.9173 52.2377 76.3727 54.2653 75.8381 57.0315M71.7416 57.3851C72.1085 55.9108 72.0563 54.3637 71.5908 52.9174C71.3547 52.2329 70.8738 51.6594 70.2401 51.3068C69.6064 50.9542 68.8646 50.8472 68.1567 51.0064C67.206 51.1039 66.2882 51.4073 65.4673 51.8955C64.6463 52.3837 63.9422 53.0448 63.4041 53.8327C62.3519 55.3366 61.6489 57.0557 61.3465 58.8647C60.9665 60.3604 61.0139 61.9324 61.4835 63.4026C61.7363 64.0965 62.236 64.6735 62.8875 65.0237C63.539 65.374 64.2968 65.4732 65.0168 65.3023C65.9547 65.1798 66.8545 64.8543 67.6531 64.3485C68.4516 63.8428 69.1298 63.169 69.64 62.3744C70.6998 60.8857 71.4174 59.1821 71.7416 57.3851ZM79.0547 48.6515C79.9463 48.6465 80.6339 48.6189 81.1174 48.5688C81.8464 48.4835 82.5705 48.3608 83.2869 48.2014C82.4649 51.5744 81.7454 54.858 81.1287 58.0522C80.8672 59.4022 80.5773 60.9755 80.2589 62.7719L85.8951 61.9431L85.464 64.1713C83.1072 64.2879 81.37 64.4058 80.2425 64.5249C78.916 64.6678 77.4114 64.8731 75.7287 65.1406C76.5181 61.923 77.2338 58.6549 77.8756 55.3362C78.3072 53.11 78.7002 50.8818 79.0547 48.6515ZM96.6096 46.8459C97.1005 46.8761 97.5929 46.869 98.0827 46.8246C98.5227 46.7782 99.077 46.6854 99.7432 46.555C100.302 51.8614 101.138 57.135 102.248 62.3543C101.584 62.3627 100.9 62.4045 100.196 62.4797C99.8438 62.5161 99.0468 62.639 97.7974 62.8559C97.763 62.02 97.6122 60.4317 97.3449 58.091L91.6634 58.718C90.8522 60.1307 89.9438 61.8127 88.9383 63.7638C88.4522 63.7286 87.9639 63.7408 87.4802 63.8001C87.2137 63.829 86.8416 63.8779 86.369 63.9443C90.1705 58.4852 93.5921 52.7723 96.6096 46.8459ZM97.2645 56.7155C96.8069 54.369 96.4923 52.2703 96.3205 50.4196L92.4892 57.2246L97.2645 56.7155ZM127.432 47.1518L126.861 47.2133C126.524 46.53 125.973 45.9749 125.291 45.6321C124.609 45.2893 123.834 45.1775 123.083 45.3136C121.147 45.5167 119.369 46.4689 118.13 47.9656C116.91 49.3914 116.094 51.1165 115.766 52.9625C114.89 57.4983 116.27 59.5715 119.906 59.1819C120.621 59.0991 121.323 58.9307 121.997 58.6804C122.354 57.1372 122.581 56.1098 122.679 55.5982C122.869 54.6185 123.02 53.6446 123.13 52.6766C123.749 52.6866 124.367 52.6572 124.982 52.5888C125.772 52.481 126.555 52.3291 127.327 52.1337C126.855 53.4927 126.487 54.8857 126.226 56.3004C126.11 56.9006 125.95 57.8896 125.746 59.2672C123.694 60.0465 121.555 60.5749 119.376 60.8409C116.537 61.1426 114.409 60.7067 112.992 59.533C111.477 58.2657 110.979 56.2896 111.497 53.6045C111.972 50.8869 113.405 48.4283 115.538 46.6728C117.698 44.9329 120.332 43.8797 123.099 43.6496C124.056 43.5546 125.02 43.5567 125.976 43.6559C126.862 43.6795 127.731 43.9038 128.517 44.3117C128.073 45.2248 127.711 46.1747 127.433 47.1506M132.24 43.0465L134.043 42.8534C134.394 42.8175 134.924 42.7339 135.634 42.6026C136.341 42.4772 136.874 42.3945 137.222 42.3518C138.459 42.127 139.735 42.3371 140.834 42.9462C141.319 43.2903 141.681 43.78 141.868 44.3439C142.054 44.9078 142.055 45.5164 141.871 46.081C141.47 48.1592 139.952 49.7144 137.315 50.7468C137.739 51.7424 138.362 52.9964 139.176 54.5086C140.21 56.4446 140.859 57.6818 141.124 58.2202C140.441 58.1891 139.757 58.1975 139.075 58.2453C138.147 58.3394 137.227 58.502 136.322 58.7318L133.174 51.1869C132.846 52.96 132.438 55.6003 131.949 59.108C131.374 59.123 130.752 59.1648 130.085 59.2333C129.372 59.3086 128.594 59.4285 127.752 59.5932C128.16 58.0609 128.479 56.6929 128.71 55.4891C129.726 50.2319 130.46 46.0747 130.914 43.0177C131.668 43.039 132.114 43.0402 132.24 43.0277M133.984 50.3794C134.924 50.2848 135.801 49.8631 136.461 49.1882C137.118 48.5379 137.56 47.7019 137.726 46.7932C138.114 44.787 137.197 43.9038 134.977 44.1437C134.838 44.1656 134.701 44.197 134.566 44.2377L133.372 50.4183C133.577 50.4172 133.781 50.4042 133.984 50.3794ZM151.3 41.0152C151.791 41.0442 152.283 41.0371 152.772 40.9939C153.212 40.9462 153.769 40.8559 154.434 40.7243C154.992 46.0308 155.828 51.3046 156.94 56.5236C156.274 56.5337 155.59 56.5755 154.887 56.649C154.536 56.6858 153.737 56.8112 152.488 57.0252C152.456 56.1888 152.302 54.6014 152.037 52.2691L146.354 52.9023C145.542 54.3142 144.634 55.9953 143.63 57.9456C143.143 57.9114 142.654 57.9244 142.17 57.9844C141.903 58.0108 141.531 58.0609 141.06 58.1286C144.862 52.6648 148.284 46.9468 151.3 41.0152ZM151.954 50.8848C151.498 48.5391 151.184 46.4405 151.013 44.5888L147.179 51.3926L151.954 50.8848ZM160.836 43.8942C161.108 42.4839 161.328 41.1401 161.494 39.8628C161.966 39.8553 162.374 39.834 162.721 39.7976C163.145 39.7503 163.565 39.6749 163.978 39.5719C164.885 40.7523 166.262 42.5048 168.109 44.8296C168.316 45.0904 168.874 45.8515 169.784 47.113C170.325 47.8854 170.93 48.611 171.593 49.2822C171.79 48.6491 171.947 48.0041 172.063 47.3512L172.737 43.8653C172.893 43.0603 173.144 41.322 173.491 38.6503C173.879 38.6712 174.269 38.6661 174.656 38.6352C175.127 38.5767 175.594 38.4905 176.054 38.3769C174.981 42.7715 173.807 48.244 172.534 54.7945L170.16 55.0453C169.275 53.6501 168.039 51.9489 166.452 49.9418C164.228 47.1456 162.932 45.4971 162.564 44.9964C162.35 46.0087 162.099 47.2584 161.81 48.7456C161.398 50.8739 161.021 53.3186 160.679 56.0797C160.3 56.0541 159.919 56.0541 159.54 56.0797C159.172 56.1211 158.698 56.2051 158.122 56.3305C158.77 54.0935 159.422 51.2735 160.079 47.8703L160.836 43.8942ZM179.083 38.1261C179.912 38.0444 180.736 37.9188 181.552 37.75C180.961 40.2294 180.377 42.9638 179.8 45.9531C179.451 47.3532 179.369 48.8061 179.557 50.2365C179.61 50.5668 179.732 50.8824 179.915 51.1627C180.098 51.4429 180.338 51.6816 180.619 51.8632C180.901 52.0448 181.218 52.1651 181.549 52.2165C181.88 52.2678 182.219 52.249 182.542 52.1612C183.406 52.0932 184.241 51.819 184.976 51.3619C185.711 50.9047 186.326 50.2779 186.767 49.5343C187.552 48.0985 188.078 46.5368 188.323 44.9199C188.901 41.9406 189.325 39.2814 189.597 36.9424C190.015 36.9796 190.435 36.9796 190.854 36.9424C191.271 36.8986 191.776 36.817 192.373 36.6917L190.076 47.1167C189.664 49.0257 188.605 50.7348 187.078 51.9556C185.573 53.2015 183.728 53.9686 181.782 54.1575C180.207 54.4251 178.588 54.1908 177.155 53.4879C176.518 53.1153 176.008 52.5588 175.694 51.8918C175.38 51.2248 175.276 50.4785 175.395 49.7512C175.497 48.5965 175.665 47.4485 175.898 46.313C175.981 45.8816 176.114 45.2333 176.293 44.3669C176.471 43.5004 176.603 42.8484 176.688 42.412C176.814 41.7541 177.024 40.3514 177.316 38.2039C177.903 38.211 178.491 38.1876 179.076 38.1337M194.076 36.3982C194.968 36.3932 195.655 36.3652 196.137 36.3142C196.866 36.2303 197.59 36.1081 198.306 35.9481C197.487 39.3211 196.768 42.6047 196.149 45.7989C195.889 47.1498 195.6 48.723 195.281 50.5186L200.914 49.6898L200.486 51.9117C198.129 52.0279 196.39 52.1458 195.267 52.2653C193.939 52.4083 192.434 52.6135 190.751 52.881C191.542 49.6626 192.258 46.3945 192.899 43.0766C193.329 40.8513 193.722 38.6231 194.079 36.392M211.044 34.6453C211.535 34.6746 212.027 34.6679 212.516 34.6252C212.956 34.5763 213.51 34.486 214.175 34.3556C214.734 39.6626 215.571 44.9368 216.683 50.1562C216.019 50.1663 215.334 50.2081 214.63 50.2816C214.279 50.3184 213.479 50.4438 212.232 50.6578C212.197 49.8219 212.046 48.2361 211.78 45.9004L206.098 46.5274C205.289 47.9435 204.382 49.6254 203.377 51.5732C202.89 51.5403 202.402 51.5533 201.917 51.612C201.651 51.6384 201.279 51.6885 200.805 51.7562C204.607 46.2931 208.028 40.576 211.044 34.6453ZM211.698 44.5149C211.242 42.1742 210.927 40.0756 210.754 38.2189L206.921 45.0239L211.698 44.5149ZM219.071 44.3782L220.03 39.4127C220.449 37.2501 220.764 35.2856 220.976 33.5192C221.197 33.4954 221.593 33.4653 222.167 33.4265C222.66 33.3939 223.056 33.3625 223.346 33.3324C223.792 33.2839 224.467 33.2003 225.371 33.0816C226.275 32.9629 226.949 32.8793 227.393 32.8308C228.689 32.6655 229.999 32.642 231.3 32.7606C232.061 32.7955 232.801 33.0165 233.455 33.4042C234.109 33.792 234.658 34.3345 235.053 34.9838C235.778 36.4068 235.957 38.0453 235.555 39.5907C235.248 41.1775 234.617 42.6842 233.701 44.017C232.723 45.4519 231.45 46.6631 229.967 47.5706C228.203 48.5914 226.231 49.2006 224.197 49.3525C223.611 49.416 222.534 49.4996 220.968 49.6032C219.604 49.6998 218.52 49.8001 217.72 49.908C218.275 48.0914 218.725 46.2447 219.069 44.3769M231.417 40.1901C231.848 38.6918 231.668 37.0844 230.915 35.7186C230.135 34.5717 228.769 34.1019 226.816 34.3092C226.104 34.3849 225.397 34.5 224.699 34.654C224.65 34.9048 224.597 35.1794 224.544 35.4528C224.424 36.0789 224.217 37.0173 223.923 38.2678C223.63 39.5184 223.42 40.4563 223.295 41.0816L222.615 44.6064L221.951 48.1763C222.756 48.1052 223.971 47.9251 225.596 47.6359C227.237 47.1376 228.641 46.0626 229.548 44.6101C230.472 43.2832 231.105 41.7772 231.407 40.1901M242.535 31.2873C243.026 31.3175 243.518 31.3104 244.007 31.266C244.447 31.2196 245.001 31.128 245.666 30.9964C246.227 36.303 247.066 41.5767 248.18 46.7957C247.516 46.8049 246.832 46.8467 246.128 46.9211C245.776 46.96 244.978 47.0816 243.729 47.2973C243.694 46.4614 243.543 44.8731 243.277 42.5324L237.595 43.1656C236.783 44.5775 235.875 46.2591 234.87 48.2102C234.384 48.1761 233.895 48.1887 233.411 48.2478C233.144 48.2766 232.772 48.3243 232.298 48.392C236.102 42.9296 239.525 37.2124 242.542 31.281M243.195 41.1506C242.739 38.8099 242.425 36.7113 242.251 34.8547L238.419 41.6609L243.195 41.1506Z" fill="white"/>
</svg>
